<svg width="392" height="532" viewBox="0 0 392 532" fill="none" xmlns="http://www.w3.org/2000/svg">
<g filter="url(#filter0_d_663_661)">
<rect x="11" y="217" width="370" height="50" fill="white" stroke="#F5F5F5" stroke-width="2"/>
<path d="M144.949 247.884V249H138.847V247.884H141.403V240.18C141.271 240.36 141.031 240.564 140.683 240.792C140.335 241.02 139.957 241.218 139.549 241.386C139.141 241.542 138.781 241.62 138.469 241.62V240.432C138.745 240.432 139.045 240.354 139.369 240.198C139.705 240.042 140.017 239.862 140.305 239.658C140.605 239.442 140.857 239.244 141.061 239.064C141.265 238.884 141.379 238.77 141.403 238.722H142.663V247.884H144.949ZM156.66 249.09C155.796 249.09 154.998 248.91 154.266 248.55C153.546 248.178 152.916 247.68 152.376 247.056C151.836 246.432 151.416 245.736 151.116 244.968C150.828 244.188 150.684 243.396 150.684 242.592C150.684 241.74 150.828 240.93 151.116 240.162C151.416 239.382 151.83 238.692 152.358 238.092C152.886 237.48 153.51 237 154.23 236.652C154.95 236.304 155.736 236.13 156.588 236.13C157.848 236.13 158.874 236.388 159.666 236.904C160.458 237.42 161.058 238.092 161.466 238.92L160.494 239.568C160.086 238.776 159.54 238.194 158.856 237.822C158.172 237.45 157.41 237.264 156.57 237.264C155.862 237.264 155.22 237.414 154.644 237.714C154.08 238.014 153.594 238.416 153.186 238.92C152.79 239.424 152.484 239.994 152.268 240.63C152.052 241.266 151.944 241.926 151.944 242.61C151.944 243.33 152.064 244.014 152.304 244.662C152.544 245.298 152.88 245.868 153.312 246.372C153.756 246.864 154.266 247.254 154.842 247.542C155.43 247.818 156.066 247.956 156.75 247.956C157.482 247.956 158.178 247.782 158.838 247.434C159.51 247.086 160.152 246.546 160.764 245.814V243.69H157.92V242.718H161.826V249H160.764V247.128C159.588 248.436 158.22 249.09 156.66 249.09ZM168.753 249.18C168.021 249.18 167.343 248.994 166.719 248.622C166.095 248.238 165.609 247.758 165.261 247.182V249H164.163V235.86H165.387V241.584C165.807 240.948 166.311 240.438 166.899 240.054C167.487 239.658 168.171 239.46 168.951 239.46C169.611 239.46 170.199 239.598 170.715 239.874C171.243 240.15 171.693 240.522 172.064 240.99C172.437 241.446 172.719 241.968 172.911 242.556C173.103 243.132 173.199 243.726 173.199 244.338C173.199 245.214 173.001 246.018 172.605 246.75C172.221 247.482 171.693 248.07 171.021 248.514C170.349 248.958 169.593 249.18 168.753 249.18ZM168.465 248.1C169.149 248.1 169.749 247.92 170.265 247.56C170.793 247.2 171.207 246.738 171.507 246.174C171.807 245.598 171.957 244.986 171.957 244.338C171.957 243.678 171.813 243.06 171.525 242.484C171.249 241.908 170.859 241.44 170.355 241.08C169.851 240.72 169.269 240.54 168.609 240.54C167.877 240.54 167.229 240.774 166.665 241.242C166.113 241.71 165.687 242.256 165.387 242.88V245.796C165.447 246.228 165.645 246.618 165.981 246.966C166.317 247.314 166.713 247.59 167.169 247.794C167.625 247.998 168.057 248.1 168.465 248.1ZM185.26 249.09C184.36 249.09 183.544 248.91 182.812 248.55C182.08 248.178 181.45 247.686 180.922 247.074C180.394 246.462 179.986 245.772 179.698 245.004C179.41 244.224 179.266 243.426 179.266 242.61C179.266 241.758 179.416 240.948 179.716 240.18C180.016 239.4 180.436 238.71 180.976 238.11C181.528 237.498 182.17 237.018 182.902 236.67C183.634 236.31 184.426 236.13 185.278 236.13C186.166 236.13 186.976 236.316 187.708 236.688C188.44 237.06 189.07 237.558 189.598 238.182C190.138 238.806 190.546 239.502 190.822 240.27C191.11 241.038 191.254 241.824 191.254 242.628C191.254 243.48 191.104 244.296 190.804 245.076C190.504 245.844 190.084 246.534 189.544 247.146C189.004 247.746 188.368 248.22 187.636 248.568C186.904 248.916 186.112 249.09 185.26 249.09ZM180.526 242.61C180.526 243.306 180.64 243.972 180.868 244.608C181.096 245.244 181.42 245.814 181.84 246.318C182.26 246.822 182.758 247.224 183.334 247.524C183.922 247.812 184.564 247.956 185.26 247.956C185.992 247.956 186.646 247.806 187.222 247.506C187.81 247.194 188.308 246.78 188.716 246.264C189.136 245.748 189.454 245.178 189.67 244.554C189.886 243.918 189.994 243.27 189.994 242.61C189.994 241.914 189.88 241.248 189.652 240.612C189.424 239.976 189.094 239.406 188.662 238.902C188.242 238.398 187.744 238.002 187.168 237.714C186.592 237.426 185.956 237.282 185.26 237.282C184.54 237.282 183.886 237.432 183.298 237.732C182.722 238.032 182.224 238.44 181.804 238.956C181.396 239.46 181.078 240.03 180.85 240.666C180.634 241.302 180.526 241.95 180.526 242.61ZM193.827 249V240.594H192.531V239.622H193.827V239.37C193.827 238.218 194.073 237.318 194.565 236.67C195.069 236.01 195.741 235.68 196.581 235.68C196.941 235.68 197.295 235.734 197.643 235.842C198.003 235.95 198.309 236.094 198.561 236.274L198.183 237.156C197.823 236.88 197.367 236.742 196.815 236.742C196.251 236.742 195.813 236.964 195.501 237.408C195.201 237.852 195.051 238.494 195.051 239.334V239.622H197.643V240.594H195.051V249H193.827ZM211.224 238.614C210.864 238.218 210.384 237.894 209.784 237.642C209.184 237.378 208.5 237.246 207.732 237.246C206.604 237.246 205.782 237.462 205.266 237.894C204.75 238.314 204.492 238.89 204.492 239.622C204.492 240.126 204.618 240.522 204.87 240.81C205.122 241.098 205.506 241.338 206.022 241.53C206.55 241.71 207.222 241.89 208.038 242.07C208.95 242.262 209.736 242.49 210.396 242.754C211.056 243.018 211.566 243.378 211.926 243.834C212.286 244.278 212.466 244.884 212.466 245.652C212.466 246.432 212.268 247.08 211.872 247.596C211.476 248.112 210.93 248.496 210.234 248.748C209.538 248.988 208.746 249.108 207.858 249.108C205.866 249.108 204.156 248.49 202.728 247.254L203.358 246.228C203.814 246.708 204.438 247.122 205.23 247.47C206.034 247.818 206.922 247.992 207.894 247.992C208.902 247.992 209.694 247.806 210.27 247.434C210.846 247.062 211.134 246.51 211.134 245.778C211.134 245.25 210.99 244.83 210.702 244.518C210.414 244.194 209.982 243.93 209.406 243.726C208.83 243.522 208.122 243.324 207.282 243.132C206.394 242.928 205.644 242.7 205.032 242.448C204.432 242.196 203.976 241.866 203.664 241.458C203.352 241.05 203.196 240.498 203.196 239.802C203.196 239.01 203.388 238.344 203.772 237.804C204.168 237.252 204.708 236.838 205.392 236.562C206.076 236.274 206.862 236.13 207.75 236.13C208.59 236.13 209.346 236.262 210.018 236.526C210.69 236.778 211.296 237.138 211.836 237.606L211.224 238.614ZM219.224 249.18C218.444 249.18 217.742 248.976 217.118 248.568C216.506 248.16 216.02 247.656 215.66 247.056V252.834H214.436V239.622H215.534V241.44C215.906 240.852 216.398 240.378 217.01 240.018C217.634 239.646 218.306 239.46 219.026 239.46C219.674 239.46 220.268 239.598 220.808 239.874C221.348 240.138 221.816 240.498 222.212 240.954C222.62 241.41 222.932 241.932 223.148 242.52C223.364 243.096 223.472 243.696 223.472 244.32C223.472 245.196 223.292 246.006 222.932 246.75C222.584 247.482 222.086 248.07 221.438 248.514C220.802 248.958 220.064 249.18 219.224 249.18ZM218.882 248.1C219.566 248.1 220.154 247.92 220.646 247.56C221.15 247.188 221.54 246.714 221.816 246.138C222.092 245.562 222.23 244.956 222.23 244.32C222.23 243.648 222.074 243.024 221.762 242.448C221.45 241.872 221.03 241.41 220.502 241.062C219.986 240.714 219.398 240.54 218.738 240.54C218.33 240.54 217.898 240.648 217.442 240.864C216.998 241.068 216.602 241.35 216.254 241.71C215.918 242.058 215.72 242.442 215.66 242.862V245.742C215.936 246.402 216.368 246.96 216.956 247.416C217.544 247.872 218.186 248.1 218.882 248.1ZM224.789 246.3C224.789 245.724 224.957 245.226 225.293 244.806C225.629 244.374 226.091 244.038 226.679 243.798C227.279 243.558 227.969 243.438 228.749 243.438C229.205 243.438 229.679 243.48 230.171 243.564C230.663 243.636 231.101 243.738 231.485 243.87V243.078C231.485 242.286 231.251 241.656 230.783 241.188C230.315 240.72 229.667 240.486 228.839 240.486C228.347 240.486 227.855 240.582 227.363 240.774C226.871 240.954 226.361 241.224 225.833 241.584L225.365 240.72C225.977 240.3 226.577 239.988 227.165 239.784C227.753 239.568 228.353 239.46 228.965 239.46C230.117 239.46 231.029 239.79 231.701 240.45C232.373 241.11 232.709 242.022 232.709 243.186V247.524C232.709 247.848 232.859 248.016 233.159 248.028V249C232.895 249.036 232.709 249.048 232.601 249.036C232.301 249.024 232.073 248.928 231.917 248.748C231.761 248.568 231.677 248.376 231.665 248.172L231.647 247.488C231.227 248.028 230.681 248.448 230.009 248.748C229.337 249.036 228.653 249.18 227.957 249.18C227.345 249.18 226.799 249.054 226.319 248.802C225.839 248.538 225.461 248.19 225.185 247.758C224.921 247.314 224.789 246.828 224.789 246.3ZM231.071 247.02C231.347 246.696 231.485 246.396 231.485 246.12V244.752C230.657 244.428 229.793 244.266 228.893 244.266C228.017 244.266 227.309 244.44 226.769 244.788C226.229 245.136 225.959 245.61 225.959 246.21C225.959 246.726 226.157 247.194 226.553 247.614C226.961 248.034 227.525 248.244 228.245 248.244C228.833 248.244 229.379 248.13 229.883 247.902C230.399 247.674 230.795 247.38 231.071 247.02ZM239.422 249.18C238.51 249.18 237.7 248.958 236.992 248.514C236.284 248.058 235.726 247.464 235.318 246.732C234.91 245.988 234.706 245.172 234.706 244.284C234.706 243.396 234.904 242.592 235.3 241.872C235.696 241.14 236.248 240.558 236.956 240.126C237.664 239.682 238.48 239.46 239.404 239.46C240.28 239.46 241.048 239.664 241.708 240.072C242.38 240.468 242.884 241.008 243.22 241.692L242.032 242.07C241.768 241.59 241.396 241.218 240.916 240.954C240.448 240.678 239.926 240.54 239.35 240.54C238.714 240.54 238.138 240.702 237.622 241.026C237.118 241.35 236.71 241.8 236.398 242.376C236.098 242.94 235.948 243.576 235.948 244.284C235.948 244.992 236.104 245.634 236.416 246.21C236.728 246.786 237.142 247.248 237.658 247.596C238.174 247.932 238.744 248.1 239.368 248.1C239.776 248.1 240.172 248.028 240.556 247.884C240.94 247.74 241.27 247.548 241.546 247.308C241.822 247.056 242.008 246.786 242.104 246.498L243.31 246.858C243.142 247.302 242.866 247.704 242.482 248.064C242.098 248.412 241.642 248.688 241.114 248.892C240.586 249.084 240.022 249.18 239.422 249.18ZM249.195 249.18C248.295 249.18 247.491 248.958 246.783 248.514C246.075 248.07 245.517 247.476 245.109 246.732C244.701 245.988 244.497 245.172 244.497 244.284C244.497 243.408 244.695 242.604 245.091 241.872C245.499 241.14 246.057 240.558 246.765 240.126C247.473 239.682 248.277 239.46 249.177 239.46C250.101 239.46 250.911 239.682 251.607 240.126C252.303 240.57 252.843 241.158 253.227 241.89C253.623 242.61 253.821 243.402 253.821 244.266C253.821 244.458 253.815 244.62 253.803 244.752H245.775C245.835 245.424 246.027 246.024 246.351 246.552C246.675 247.068 247.089 247.482 247.593 247.794C248.097 248.094 248.649 248.244 249.249 248.244C249.861 248.244 250.437 248.088 250.977 247.776C251.517 247.464 251.901 247.056 252.129 246.552L253.191 246.84C252.999 247.296 252.699 247.704 252.291 248.064C251.895 248.412 251.433 248.688 250.905 248.892C250.377 249.084 249.807 249.18 249.195 249.18ZM245.739 243.87H252.669C252.621 243.198 252.435 242.604 252.111 242.088C251.787 241.56 251.373 241.152 250.869 240.864C250.365 240.564 249.807 240.414 249.195 240.414C248.583 240.414 248.025 240.564 247.521 240.864C247.017 241.152 246.603 241.56 246.279 242.088C245.967 242.604 245.787 243.198 245.739 243.87Z" fill="#86878B"/>
<rect x="11" y="267" width="370" height="50" fill="white" stroke="#F5F5F5" stroke-width="2"/>
<path d="M144.949 297.884V299H138.847V297.884H141.403V290.18C141.271 290.36 141.031 290.564 140.683 290.792C140.335 291.02 139.957 291.218 139.549 291.386C139.141 291.542 138.781 291.62 138.469 291.62V290.432C138.745 290.432 139.045 290.354 139.369 290.198C139.705 290.042 140.017 289.862 140.305 289.658C140.605 289.442 140.857 289.244 141.061 289.064C141.265 288.884 141.379 288.77 141.403 288.722H142.663V297.884H144.949ZM156.66 299.09C155.796 299.09 154.998 298.91 154.266 298.55C153.546 298.178 152.916 297.68 152.376 297.056C151.836 296.432 151.416 295.736 151.116 294.968C150.828 294.188 150.684 293.396 150.684 292.592C150.684 291.74 150.828 290.93 151.116 290.162C151.416 289.382 151.83 288.692 152.358 288.092C152.886 287.48 153.51 287 154.23 286.652C154.95 286.304 155.736 286.13 156.588 286.13C157.848 286.13 158.874 286.388 159.666 286.904C160.458 287.42 161.058 288.092 161.466 288.92L160.494 289.568C160.086 288.776 159.54 288.194 158.856 287.822C158.172 287.45 157.41 287.264 156.57 287.264C155.862 287.264 155.22 287.414 154.644 287.714C154.08 288.014 153.594 288.416 153.186 288.92C152.79 289.424 152.484 289.994 152.268 290.63C152.052 291.266 151.944 291.926 151.944 292.61C151.944 293.33 152.064 294.014 152.304 294.662C152.544 295.298 152.88 295.868 153.312 296.372C153.756 296.864 154.266 297.254 154.842 297.542C155.43 297.818 156.066 297.956 156.75 297.956C157.482 297.956 158.178 297.782 158.838 297.434C159.51 297.086 160.152 296.546 160.764 295.814V293.69H157.92V292.718H161.826V299H160.764V297.128C159.588 298.436 158.22 299.09 156.66 299.09ZM168.753 299.18C168.021 299.18 167.343 298.994 166.719 298.622C166.095 298.238 165.609 297.758 165.261 297.182V299H164.163V285.86H165.387V291.584C165.807 290.948 166.311 290.438 166.899 290.054C167.487 289.658 168.171 289.46 168.951 289.46C169.611 289.46 170.199 289.598 170.715 289.874C171.243 290.15 171.693 290.522 172.064 290.99C172.437 291.446 172.719 291.968 172.911 292.556C173.103 293.132 173.199 293.726 173.199 294.338C173.199 295.214 173.001 296.018 172.605 296.75C172.221 297.482 171.693 298.07 171.021 298.514C170.349 298.958 169.593 299.18 168.753 299.18ZM168.465 298.1C169.149 298.1 169.749 297.92 170.265 297.56C170.793 297.2 171.207 296.738 171.507 296.174C171.807 295.598 171.957 294.986 171.957 294.338C171.957 293.678 171.813 293.06 171.525 292.484C171.249 291.908 170.859 291.44 170.355 291.08C169.851 290.72 169.269 290.54 168.609 290.54C167.877 290.54 167.229 290.774 166.665 291.242C166.113 291.71 165.687 292.256 165.387 292.88V295.796C165.447 296.228 165.645 296.618 165.981 296.966C166.317 297.314 166.713 297.59 167.169 297.794C167.625 297.998 168.057 298.1 168.465 298.1ZM185.26 299.09C184.36 299.09 183.544 298.91 182.812 298.55C182.08 298.178 181.45 297.686 180.922 297.074C180.394 296.462 179.986 295.772 179.698 295.004C179.41 294.224 179.266 293.426 179.266 292.61C179.266 291.758 179.416 290.948 179.716 290.18C180.016 289.4 180.436 288.71 180.976 288.11C181.528 287.498 182.17 287.018 182.902 286.67C183.634 286.31 184.426 286.13 185.278 286.13C186.166 286.13 186.976 286.316 187.708 286.688C188.44 287.06 189.07 287.558 189.598 288.182C190.138 288.806 190.546 289.502 190.822 290.27C191.11 291.038 191.254 291.824 191.254 292.628C191.254 293.48 191.104 294.296 190.804 295.076C190.504 295.844 190.084 296.534 189.544 297.146C189.004 297.746 188.368 298.22 187.636 298.568C186.904 298.916 186.112 299.09 185.26 299.09ZM180.526 292.61C180.526 293.306 180.64 293.972 180.868 294.608C181.096 295.244 181.42 295.814 181.84 296.318C182.26 296.822 182.758 297.224 183.334 297.524C183.922 297.812 184.564 297.956 185.26 297.956C185.992 297.956 186.646 297.806 187.222 297.506C187.81 297.194 188.308 296.78 188.716 296.264C189.136 295.748 189.454 295.178 189.67 294.554C189.886 293.918 189.994 293.27 189.994 292.61C189.994 291.914 189.88 291.248 189.652 290.612C189.424 289.976 189.094 289.406 188.662 288.902C188.242 288.398 187.744 288.002 187.168 287.714C186.592 287.426 185.956 287.282 185.26 287.282C184.54 287.282 183.886 287.432 183.298 287.732C182.722 288.032 182.224 288.44 181.804 288.956C181.396 289.46 181.078 290.03 180.85 290.666C180.634 291.302 180.526 291.95 180.526 292.61ZM193.827 299V290.594H192.531V289.622H193.827V289.37C193.827 288.218 194.073 287.318 194.565 286.67C195.069 286.01 195.741 285.68 196.581 285.68C196.941 285.68 197.295 285.734 197.643 285.842C198.003 285.95 198.309 286.094 198.561 286.274L198.183 287.156C197.823 286.88 197.367 286.742 196.815 286.742C196.251 286.742 195.813 286.964 195.501 287.408C195.201 287.852 195.051 288.494 195.051 289.334V289.622H197.643V290.594H195.051V299H193.827ZM211.224 288.614C210.864 288.218 210.384 287.894 209.784 287.642C209.184 287.378 208.5 287.246 207.732 287.246C206.604 287.246 205.782 287.462 205.266 287.894C204.75 288.314 204.492 288.89 204.492 289.622C204.492 290.126 204.618 290.522 204.87 290.81C205.122 291.098 205.506 291.338 206.022 291.53C206.55 291.71 207.222 291.89 208.038 292.07C208.95 292.262 209.736 292.49 210.396 292.754C211.056 293.018 211.566 293.378 211.926 293.834C212.286 294.278 212.466 294.884 212.466 295.652C212.466 296.432 212.268 297.08 211.872 297.596C211.476 298.112 210.93 298.496 210.234 298.748C209.538 298.988 208.746 299.108 207.858 299.108C205.866 299.108 204.156 298.49 202.728 297.254L203.358 296.228C203.814 296.708 204.438 297.122 205.23 297.47C206.034 297.818 206.922 297.992 207.894 297.992C208.902 297.992 209.694 297.806 210.27 297.434C210.846 297.062 211.134 296.51 211.134 295.778C211.134 295.25 210.99 294.83 210.702 294.518C210.414 294.194 209.982 293.93 209.406 293.726C208.83 293.522 208.122 293.324 207.282 293.132C206.394 292.928 205.644 292.7 205.032 292.448C204.432 292.196 203.976 291.866 203.664 291.458C203.352 291.05 203.196 290.498 203.196 289.802C203.196 289.01 203.388 288.344 203.772 287.804C204.168 287.252 204.708 286.838 205.392 286.562C206.076 286.274 206.862 286.13 207.75 286.13C208.59 286.13 209.346 286.262 210.018 286.526C210.69 286.778 211.296 287.138 211.836 287.606L211.224 288.614ZM219.224 299.18C218.444 299.18 217.742 298.976 217.118 298.568C216.506 298.16 216.02 297.656 215.66 297.056V302.834H214.436V289.622H215.534V291.44C215.906 290.852 216.398 290.378 217.01 290.018C217.634 289.646 218.306 289.46 219.026 289.46C219.674 289.46 220.268 289.598 220.808 289.874C221.348 290.138 221.816 290.498 222.212 290.954C222.62 291.41 222.932 291.932 223.148 292.52C223.364 293.096 223.472 293.696 223.472 294.32C223.472 295.196 223.292 296.006 222.932 296.75C222.584 297.482 222.086 298.07 221.438 298.514C220.802 298.958 220.064 299.18 219.224 299.18ZM218.882 298.1C219.566 298.1 220.154 297.92 220.646 297.56C221.15 297.188 221.54 296.714 221.816 296.138C222.092 295.562 222.23 294.956 222.23 294.32C222.23 293.648 222.074 293.024 221.762 292.448C221.45 291.872 221.03 291.41 220.502 291.062C219.986 290.714 219.398 290.54 218.738 290.54C218.33 290.54 217.898 290.648 217.442 290.864C216.998 291.068 216.602 291.35 216.254 291.71C215.918 292.058 215.72 292.442 215.66 292.862V295.742C215.936 296.402 216.368 296.96 216.956 297.416C217.544 297.872 218.186 298.1 218.882 298.1ZM224.789 296.3C224.789 295.724 224.957 295.226 225.293 294.806C225.629 294.374 226.091 294.038 226.679 293.798C227.279 293.558 227.969 293.438 228.749 293.438C229.205 293.438 229.679 293.48 230.171 293.564C230.663 293.636 231.101 293.738 231.485 293.87V293.078C231.485 292.286 231.251 291.656 230.783 291.188C230.315 290.72 229.667 290.486 228.839 290.486C228.347 290.486 227.855 290.582 227.363 290.774C226.871 290.954 226.361 291.224 225.833 291.584L225.365 290.72C225.977 290.3 226.577 289.988 227.165 289.784C227.753 289.568 228.353 289.46 228.965 289.46C230.117 289.46 231.029 289.79 231.701 290.45C232.373 291.11 232.709 292.022 232.709 293.186V297.524C232.709 297.848 232.859 298.016 233.159 298.028V299C232.895 299.036 232.709 299.048 232.601 299.036C232.301 299.024 232.073 298.928 231.917 298.748C231.761 298.568 231.677 298.376 231.665 298.172L231.647 297.488C231.227 298.028 230.681 298.448 230.009 298.748C229.337 299.036 228.653 299.18 227.957 299.18C227.345 299.18 226.799 299.054 226.319 298.802C225.839 298.538 225.461 298.19 225.185 297.758C224.921 297.314 224.789 296.828 224.789 296.3ZM231.071 297.02C231.347 296.696 231.485 296.396 231.485 296.12V294.752C230.657 294.428 229.793 294.266 228.893 294.266C228.017 294.266 227.309 294.44 226.769 294.788C226.229 295.136 225.959 295.61 225.959 296.21C225.959 296.726 226.157 297.194 226.553 297.614C226.961 298.034 227.525 298.244 228.245 298.244C228.833 298.244 229.379 298.13 229.883 297.902C230.399 297.674 230.795 297.38 231.071 297.02ZM239.422 299.18C238.51 299.18 237.7 298.958 236.992 298.514C236.284 298.058 235.726 297.464 235.318 296.732C234.91 295.988 234.706 295.172 234.706 294.284C234.706 293.396 234.904 292.592 235.3 291.872C235.696 291.14 236.248 290.558 236.956 290.126C237.664 289.682 238.48 289.46 239.404 289.46C240.28 289.46 241.048 289.664 241.708 290.072C242.38 290.468 242.884 291.008 243.22 291.692L242.032 292.07C241.768 291.59 241.396 291.218 240.916 290.954C240.448 290.678 239.926 290.54 239.35 290.54C238.714 290.54 238.138 290.702 237.622 291.026C237.118 291.35 236.71 291.8 236.398 292.376C236.098 292.94 235.948 293.576 235.948 294.284C235.948 294.992 236.104 295.634 236.416 296.21C236.728 296.786 237.142 297.248 237.658 297.596C238.174 297.932 238.744 298.1 239.368 298.1C239.776 298.1 240.172 298.028 240.556 297.884C240.94 297.74 241.27 297.548 241.546 297.308C241.822 297.056 242.008 296.786 242.104 296.498L243.31 296.858C243.142 297.302 242.866 297.704 242.482 298.064C242.098 298.412 241.642 298.688 241.114 298.892C240.586 299.084 240.022 299.18 239.422 299.18ZM249.195 299.18C248.295 299.18 247.491 298.958 246.783 298.514C246.075 298.07 245.517 297.476 245.109 296.732C244.701 295.988 244.497 295.172 244.497 294.284C244.497 293.408 244.695 292.604 245.091 291.872C245.499 291.14 246.057 290.558 246.765 290.126C247.473 289.682 248.277 289.46 249.177 289.46C250.101 289.46 250.911 289.682 251.607 290.126C252.303 290.57 252.843 291.158 253.227 291.89C253.623 292.61 253.821 293.402 253.821 294.266C253.821 294.458 253.815 294.62 253.803 294.752H245.775C245.835 295.424 246.027 296.024 246.351 296.552C246.675 297.068 247.089 297.482 247.593 297.794C248.097 298.094 248.649 298.244 249.249 298.244C249.861 298.244 250.437 298.088 250.977 297.776C251.517 297.464 251.901 297.056 252.129 296.552L253.191 296.84C252.999 297.296 252.699 297.704 252.291 298.064C251.895 298.412 251.433 298.688 250.905 298.892C250.377 299.084 249.807 299.18 249.195 299.18ZM245.739 293.87H252.669C252.621 293.198 252.435 292.604 252.111 292.088C251.787 291.56 251.373 291.152 250.869 290.864C250.365 290.564 249.807 290.414 249.195 290.414C248.583 290.414 248.025 290.564 247.521 290.864C247.017 291.152 246.603 291.56 246.279 292.088C245.967 292.604 245.787 293.198 245.739 293.87Z" fill="#86878B"/>
<rect x="11" y="317" width="370" height="50" fill="white" stroke="#F5F5F5" stroke-width="2"/>
<path d="M144.949 347.884V349H138.847V347.884H141.403V340.18C141.271 340.36 141.031 340.564 140.683 340.792C140.335 341.02 139.957 341.218 139.549 341.386C139.141 341.542 138.781 341.62 138.469 341.62V340.432C138.745 340.432 139.045 340.354 139.369 340.198C139.705 340.042 140.017 339.862 140.305 339.658C140.605 339.442 140.857 339.244 141.061 339.064C141.265 338.884 141.379 338.77 141.403 338.722H142.663V347.884H144.949ZM156.66 349.09C155.796 349.09 154.998 348.91 154.266 348.55C153.546 348.178 152.916 347.68 152.376 347.056C151.836 346.432 151.416 345.736 151.116 344.968C150.828 344.188 150.684 343.396 150.684 342.592C150.684 341.74 150.828 340.93 151.116 340.162C151.416 339.382 151.83 338.692 152.358 338.092C152.886 337.48 153.51 337 154.23 336.652C154.95 336.304 155.736 336.13 156.588 336.13C157.848 336.13 158.874 336.388 159.666 336.904C160.458 337.42 161.058 338.092 161.466 338.92L160.494 339.568C160.086 338.776 159.54 338.194 158.856 337.822C158.172 337.45 157.41 337.264 156.57 337.264C155.862 337.264 155.22 337.414 154.644 337.714C154.08 338.014 153.594 338.416 153.186 338.92C152.79 339.424 152.484 339.994 152.268 340.63C152.052 341.266 151.944 341.926 151.944 342.61C151.944 343.33 152.064 344.014 152.304 344.662C152.544 345.298 152.88 345.868 153.312 346.372C153.756 346.864 154.266 347.254 154.842 347.542C155.43 347.818 156.066 347.956 156.75 347.956C157.482 347.956 158.178 347.782 158.838 347.434C159.51 347.086 160.152 346.546 160.764 345.814V343.69H157.92V342.718H161.826V349H160.764V347.128C159.588 348.436 158.22 349.09 156.66 349.09ZM168.753 349.18C168.021 349.18 167.343 348.994 166.719 348.622C166.095 348.238 165.609 347.758 165.261 347.182V349H164.163V335.86H165.387V341.584C165.807 340.948 166.311 340.438 166.899 340.054C167.487 339.658 168.171 339.46 168.951 339.46C169.611 339.46 170.199 339.598 170.715 339.874C171.243 340.15 171.693 340.522 172.064 340.99C172.437 341.446 172.719 341.968 172.911 342.556C173.103 343.132 173.199 343.726 173.199 344.338C173.199 345.214 173.001 346.018 172.605 346.75C172.221 347.482 171.693 348.07 171.021 348.514C170.349 348.958 169.593 349.18 168.753 349.18ZM168.465 348.1C169.149 348.1 169.749 347.92 170.265 347.56C170.793 347.2 171.207 346.738 171.507 346.174C171.807 345.598 171.957 344.986 171.957 344.338C171.957 343.678 171.813 343.06 171.525 342.484C171.249 341.908 170.859 341.44 170.355 341.08C169.851 340.72 169.269 340.54 168.609 340.54C167.877 340.54 167.229 340.774 166.665 341.242C166.113 341.71 165.687 342.256 165.387 342.88V345.796C165.447 346.228 165.645 346.618 165.981 346.966C166.317 347.314 166.713 347.59 167.169 347.794C167.625 347.998 168.057 348.1 168.465 348.1ZM185.26 349.09C184.36 349.09 183.544 348.91 182.812 348.55C182.08 348.178 181.45 347.686 180.922 347.074C180.394 346.462 179.986 345.772 179.698 345.004C179.41 344.224 179.266 343.426 179.266 342.61C179.266 341.758 179.416 340.948 179.716 340.18C180.016 339.4 180.436 338.71 180.976 338.11C181.528 337.498 182.17 337.018 182.902 336.67C183.634 336.31 184.426 336.13 185.278 336.13C186.166 336.13 186.976 336.316 187.708 336.688C188.44 337.06 189.07 337.558 189.598 338.182C190.138 338.806 190.546 339.502 190.822 340.27C191.11 341.038 191.254 341.824 191.254 342.628C191.254 343.48 191.104 344.296 190.804 345.076C190.504 345.844 190.084 346.534 189.544 347.146C189.004 347.746 188.368 348.22 187.636 348.568C186.904 348.916 186.112 349.09 185.26 349.09ZM180.526 342.61C180.526 343.306 180.64 343.972 180.868 344.608C181.096 345.244 181.42 345.814 181.84 346.318C182.26 346.822 182.758 347.224 183.334 347.524C183.922 347.812 184.564 347.956 185.26 347.956C185.992 347.956 186.646 347.806 187.222 347.506C187.81 347.194 188.308 346.78 188.716 346.264C189.136 345.748 189.454 345.178 189.67 344.554C189.886 343.918 189.994 343.27 189.994 342.61C189.994 341.914 189.88 341.248 189.652 340.612C189.424 339.976 189.094 339.406 188.662 338.902C188.242 338.398 187.744 338.002 187.168 337.714C186.592 337.426 185.956 337.282 185.26 337.282C184.54 337.282 183.886 337.432 183.298 337.732C182.722 338.032 182.224 338.44 181.804 338.956C181.396 339.46 181.078 340.03 180.85 340.666C180.634 341.302 180.526 341.95 180.526 342.61ZM193.827 349V340.594H192.531V339.622H193.827V339.37C193.827 338.218 194.073 337.318 194.565 336.67C195.069 336.01 195.741 335.68 196.581 335.68C196.941 335.68 197.295 335.734 197.643 335.842C198.003 335.95 198.309 336.094 198.561 336.274L198.183 337.156C197.823 336.88 197.367 336.742 196.815 336.742C196.251 336.742 195.813 336.964 195.501 337.408C195.201 337.852 195.051 338.494 195.051 339.334V339.622H197.643V340.594H195.051V349H193.827ZM211.224 338.614C210.864 338.218 210.384 337.894 209.784 337.642C209.184 337.378 208.5 337.246 207.732 337.246C206.604 337.246 205.782 337.462 205.266 337.894C204.75 338.314 204.492 338.89 204.492 339.622C204.492 340.126 204.618 340.522 204.87 340.81C205.122 341.098 205.506 341.338 206.022 341.53C206.55 341.71 207.222 341.89 208.038 342.07C208.95 342.262 209.736 342.49 210.396 342.754C211.056 343.018 211.566 343.378 211.926 343.834C212.286 344.278 212.466 344.884 212.466 345.652C212.466 346.432 212.268 347.08 211.872 347.596C211.476 348.112 210.93 348.496 210.234 348.748C209.538 348.988 208.746 349.108 207.858 349.108C205.866 349.108 204.156 348.49 202.728 347.254L203.358 346.228C203.814 346.708 204.438 347.122 205.23 347.47C206.034 347.818 206.922 347.992 207.894 347.992C208.902 347.992 209.694 347.806 210.27 347.434C210.846 347.062 211.134 346.51 211.134 345.778C211.134 345.25 210.99 344.83 210.702 344.518C210.414 344.194 209.982 343.93 209.406 343.726C208.83 343.522 208.122 343.324 207.282 343.132C206.394 342.928 205.644 342.7 205.032 342.448C204.432 342.196 203.976 341.866 203.664 341.458C203.352 341.05 203.196 340.498 203.196 339.802C203.196 339.01 203.388 338.344 203.772 337.804C204.168 337.252 204.708 336.838 205.392 336.562C206.076 336.274 206.862 336.13 207.75 336.13C208.59 336.13 209.346 336.262 210.018 336.526C210.69 336.778 211.296 337.138 211.836 337.606L211.224 338.614ZM219.224 349.18C218.444 349.18 217.742 348.976 217.118 348.568C216.506 348.16 216.02 347.656 215.66 347.056V352.834H214.436V339.622H215.534V341.44C215.906 340.852 216.398 340.378 217.01 340.018C217.634 339.646 218.306 339.46 219.026 339.46C219.674 339.46 220.268 339.598 220.808 339.874C221.348 340.138 221.816 340.498 222.212 340.954C222.62 341.41 222.932 341.932 223.148 342.52C223.364 343.096 223.472 343.696 223.472 344.32C223.472 345.196 223.292 346.006 222.932 346.75C222.584 347.482 222.086 348.07 221.438 348.514C220.802 348.958 220.064 349.18 219.224 349.18ZM218.882 348.1C219.566 348.1 220.154 347.92 220.646 347.56C221.15 347.188 221.54 346.714 221.816 346.138C222.092 345.562 222.23 344.956 222.23 344.32C222.23 343.648 222.074 343.024 221.762 342.448C221.45 341.872 221.03 341.41 220.502 341.062C219.986 340.714 219.398 340.54 218.738 340.54C218.33 340.54 217.898 340.648 217.442 340.864C216.998 341.068 216.602 341.35 216.254 341.71C215.918 342.058 215.72 342.442 215.66 342.862V345.742C215.936 346.402 216.368 346.96 216.956 347.416C217.544 347.872 218.186 348.1 218.882 348.1ZM224.789 346.3C224.789 345.724 224.957 345.226 225.293 344.806C225.629 344.374 226.091 344.038 226.679 343.798C227.279 343.558 227.969 343.438 228.749 343.438C229.205 343.438 229.679 343.48 230.171 343.564C230.663 343.636 231.101 343.738 231.485 343.87V343.078C231.485 342.286 231.251 341.656 230.783 341.188C230.315 340.72 229.667 340.486 228.839 340.486C228.347 340.486 227.855 340.582 227.363 340.774C226.871 340.954 226.361 341.224 225.833 341.584L225.365 340.72C225.977 340.3 226.577 339.988 227.165 339.784C227.753 339.568 228.353 339.46 228.965 339.46C230.117 339.46 231.029 339.79 231.701 340.45C232.373 341.11 232.709 342.022 232.709 343.186V347.524C232.709 347.848 232.859 348.016 233.159 348.028V349C232.895 349.036 232.709 349.048 232.601 349.036C232.301 349.024 232.073 348.928 231.917 348.748C231.761 348.568 231.677 348.376 231.665 348.172L231.647 347.488C231.227 348.028 230.681 348.448 230.009 348.748C229.337 349.036 228.653 349.18 227.957 349.18C227.345 349.18 226.799 349.054 226.319 348.802C225.839 348.538 225.461 348.19 225.185 347.758C224.921 347.314 224.789 346.828 224.789 346.3ZM231.071 347.02C231.347 346.696 231.485 346.396 231.485 346.12V344.752C230.657 344.428 229.793 344.266 228.893 344.266C228.017 344.266 227.309 344.44 226.769 344.788C226.229 345.136 225.959 345.61 225.959 346.21C225.959 346.726 226.157 347.194 226.553 347.614C226.961 348.034 227.525 348.244 228.245 348.244C228.833 348.244 229.379 348.13 229.883 347.902C230.399 347.674 230.795 347.38 231.071 347.02ZM239.422 349.18C238.51 349.18 237.7 348.958 236.992 348.514C236.284 348.058 235.726 347.464 235.318 346.732C234.91 345.988 234.706 345.172 234.706 344.284C234.706 343.396 234.904 342.592 235.3 341.872C235.696 341.14 236.248 340.558 236.956 340.126C237.664 339.682 238.48 339.46 239.404 339.46C240.28 339.46 241.048 339.664 241.708 340.072C242.38 340.468 242.884 341.008 243.22 341.692L242.032 342.07C241.768 341.59 241.396 341.218 240.916 340.954C240.448 340.678 239.926 340.54 239.35 340.54C238.714 340.54 238.138 340.702 237.622 341.026C237.118 341.35 236.71 341.8 236.398 342.376C236.098 342.94 235.948 343.576 235.948 344.284C235.948 344.992 236.104 345.634 236.416 346.21C236.728 346.786 237.142 347.248 237.658 347.596C238.174 347.932 238.744 348.1 239.368 348.1C239.776 348.1 240.172 348.028 240.556 347.884C240.94 347.74 241.27 347.548 241.546 347.308C241.822 347.056 242.008 346.786 242.104 346.498L243.31 346.858C243.142 347.302 242.866 347.704 242.482 348.064C242.098 348.412 241.642 348.688 241.114 348.892C240.586 349.084 240.022 349.18 239.422 349.18ZM249.195 349.18C248.295 349.18 247.491 348.958 246.783 348.514C246.075 348.07 245.517 347.476 245.109 346.732C244.701 345.988 244.497 345.172 244.497 344.284C244.497 343.408 244.695 342.604 245.091 341.872C245.499 341.14 246.057 340.558 246.765 340.126C247.473 339.682 248.277 339.46 249.177 339.46C250.101 339.46 250.911 339.682 251.607 340.126C252.303 340.57 252.843 341.158 253.227 341.89C253.623 342.61 253.821 343.402 253.821 344.266C253.821 344.458 253.815 344.62 253.803 344.752H245.775C245.835 345.424 246.027 346.024 246.351 346.552C246.675 347.068 247.089 347.482 247.593 347.794C248.097 348.094 248.649 348.244 249.249 348.244C249.861 348.244 250.437 348.088 250.977 347.776C251.517 347.464 251.901 347.056 252.129 346.552L253.191 346.84C252.999 347.296 252.699 347.704 252.291 348.064C251.895 348.412 251.433 348.688 250.905 348.892C250.377 349.084 249.807 349.18 249.195 349.18ZM245.739 343.87H252.669C252.621 343.198 252.435 342.604 252.111 342.088C251.787 341.56 251.373 341.152 250.869 340.864C250.365 340.564 249.807 340.414 249.195 340.414C248.583 340.414 248.025 340.564 247.521 340.864C247.017 341.152 246.603 341.56 246.279 342.088C245.967 342.604 245.787 343.198 245.739 343.87Z" fill="#86878B"/>
<rect x="11" y="367" width="370" height="50" fill="white" stroke="#F5F5F5" stroke-width="2"/>
<path d="M144.949 397.884V399H138.847V397.884H141.403V390.18C141.271 390.36 141.031 390.564 140.683 390.792C140.335 391.02 139.957 391.218 139.549 391.386C139.141 391.542 138.781 391.62 138.469 391.62V390.432C138.745 390.432 139.045 390.354 139.369 390.198C139.705 390.042 140.017 389.862 140.305 389.658C140.605 389.442 140.857 389.244 141.061 389.064C141.265 388.884 141.379 388.77 141.403 388.722H142.663V397.884H144.949ZM156.66 399.09C155.796 399.09 154.998 398.91 154.266 398.55C153.546 398.178 152.916 397.68 152.376 397.056C151.836 396.432 151.416 395.736 151.116 394.968C150.828 394.188 150.684 393.396 150.684 392.592C150.684 391.74 150.828 390.93 151.116 390.162C151.416 389.382 151.83 388.692 152.358 388.092C152.886 387.48 153.51 387 154.23 386.652C154.95 386.304 155.736 386.13 156.588 386.13C157.848 386.13 158.874 386.388 159.666 386.904C160.458 387.42 161.058 388.092 161.466 388.92L160.494 389.568C160.086 388.776 159.54 388.194 158.856 387.822C158.172 387.45 157.41 387.264 156.57 387.264C155.862 387.264 155.22 387.414 154.644 387.714C154.08 388.014 153.594 388.416 153.186 388.92C152.79 389.424 152.484 389.994 152.268 390.63C152.052 391.266 151.944 391.926 151.944 392.61C151.944 393.33 152.064 394.014 152.304 394.662C152.544 395.298 152.88 395.868 153.312 396.372C153.756 396.864 154.266 397.254 154.842 397.542C155.43 397.818 156.066 397.956 156.75 397.956C157.482 397.956 158.178 397.782 158.838 397.434C159.51 397.086 160.152 396.546 160.764 395.814V393.69H157.92V392.718H161.826V399H160.764V397.128C159.588 398.436 158.22 399.09 156.66 399.09ZM168.753 399.18C168.021 399.18 167.343 398.994 166.719 398.622C166.095 398.238 165.609 397.758 165.261 397.182V399H164.163V385.86H165.387V391.584C165.807 390.948 166.311 390.438 166.899 390.054C167.487 389.658 168.171 389.46 168.951 389.46C169.611 389.46 170.199 389.598 170.715 389.874C171.243 390.15 171.693 390.522 172.064 390.99C172.437 391.446 172.719 391.968 172.911 392.556C173.103 393.132 173.199 393.726 173.199 394.338C173.199 395.214 173.001 396.018 172.605 396.75C172.221 397.482 171.693 398.07 171.021 398.514C170.349 398.958 169.593 399.18 168.753 399.18ZM168.465 398.1C169.149 398.1 169.749 397.92 170.265 397.56C170.793 397.2 171.207 396.738 171.507 396.174C171.807 395.598 171.957 394.986 171.957 394.338C171.957 393.678 171.813 393.06 171.525 392.484C171.249 391.908 170.859 391.44 170.355 391.08C169.851 390.72 169.269 390.54 168.609 390.54C167.877 390.54 167.229 390.774 166.665 391.242C166.113 391.71 165.687 392.256 165.387 392.88V395.796C165.447 396.228 165.645 396.618 165.981 396.966C166.317 397.314 166.713 397.59 167.169 397.794C167.625 397.998 168.057 398.1 168.465 398.1ZM185.26 399.09C184.36 399.09 183.544 398.91 182.812 398.55C182.08 398.178 181.45 397.686 180.922 397.074C180.394 396.462 179.986 395.772 179.698 395.004C179.41 394.224 179.266 393.426 179.266 392.61C179.266 391.758 179.416 390.948 179.716 390.18C180.016 389.4 180.436 388.71 180.976 388.11C181.528 387.498 182.17 387.018 182.902 386.67C183.634 386.31 184.426 386.13 185.278 386.13C186.166 386.13 186.976 386.316 187.708 386.688C188.44 387.06 189.07 387.558 189.598 388.182C190.138 388.806 190.546 389.502 190.822 390.27C191.11 391.038 191.254 391.824 191.254 392.628C191.254 393.48 191.104 394.296 190.804 395.076C190.504 395.844 190.084 396.534 189.544 397.146C189.004 397.746 188.368 398.22 187.636 398.568C186.904 398.916 186.112 399.09 185.26 399.09ZM180.526 392.61C180.526 393.306 180.64 393.972 180.868 394.608C181.096 395.244 181.42 395.814 181.84 396.318C182.26 396.822 182.758 397.224 183.334 397.524C183.922 397.812 184.564 397.956 185.26 397.956C185.992 397.956 186.646 397.806 187.222 397.506C187.81 397.194 188.308 396.78 188.716 396.264C189.136 395.748 189.454 395.178 189.67 394.554C189.886 393.918 189.994 393.27 189.994 392.61C189.994 391.914 189.88 391.248 189.652 390.612C189.424 389.976 189.094 389.406 188.662 388.902C188.242 388.398 187.744 388.002 187.168 387.714C186.592 387.426 185.956 387.282 185.26 387.282C184.54 387.282 183.886 387.432 183.298 387.732C182.722 388.032 182.224 388.44 181.804 388.956C181.396 389.46 181.078 390.03 180.85 390.666C180.634 391.302 180.526 391.95 180.526 392.61ZM193.827 399V390.594H192.531V389.622H193.827V389.37C193.827 388.218 194.073 387.318 194.565 386.67C195.069 386.01 195.741 385.68 196.581 385.68C196.941 385.68 197.295 385.734 197.643 385.842C198.003 385.95 198.309 386.094 198.561 386.274L198.183 387.156C197.823 386.88 197.367 386.742 196.815 386.742C196.251 386.742 195.813 386.964 195.501 387.408C195.201 387.852 195.051 388.494 195.051 389.334V389.622H197.643V390.594H195.051V399H193.827ZM211.224 388.614C210.864 388.218 210.384 387.894 209.784 387.642C209.184 387.378 208.5 387.246 207.732 387.246C206.604 387.246 205.782 387.462 205.266 387.894C204.75 388.314 204.492 388.89 204.492 389.622C204.492 390.126 204.618 390.522 204.87 390.81C205.122 391.098 205.506 391.338 206.022 391.53C206.55 391.71 207.222 391.89 208.038 392.07C208.95 392.262 209.736 392.49 210.396 392.754C211.056 393.018 211.566 393.378 211.926 393.834C212.286 394.278 212.466 394.884 212.466 395.652C212.466 396.432 212.268 397.08 211.872 397.596C211.476 398.112 210.93 398.496 210.234 398.748C209.538 398.988 208.746 399.108 207.858 399.108C205.866 399.108 204.156 398.49 202.728 397.254L203.358 396.228C203.814 396.708 204.438 397.122 205.23 397.47C206.034 397.818 206.922 397.992 207.894 397.992C208.902 397.992 209.694 397.806 210.27 397.434C210.846 397.062 211.134 396.51 211.134 395.778C211.134 395.25 210.99 394.83 210.702 394.518C210.414 394.194 209.982 393.93 209.406 393.726C208.83 393.522 208.122 393.324 207.282 393.132C206.394 392.928 205.644 392.7 205.032 392.448C204.432 392.196 203.976 391.866 203.664 391.458C203.352 391.05 203.196 390.498 203.196 389.802C203.196 389.01 203.388 388.344 203.772 387.804C204.168 387.252 204.708 386.838 205.392 386.562C206.076 386.274 206.862 386.13 207.75 386.13C208.59 386.13 209.346 386.262 210.018 386.526C210.69 386.778 211.296 387.138 211.836 387.606L211.224 388.614ZM219.224 399.18C218.444 399.18 217.742 398.976 217.118 398.568C216.506 398.16 216.02 397.656 215.66 397.056V402.834H214.436V389.622H215.534V391.44C215.906 390.852 216.398 390.378 217.01 390.018C217.634 389.646 218.306 389.46 219.026 389.46C219.674 389.46 220.268 389.598 220.808 389.874C221.348 390.138 221.816 390.498 222.212 390.954C222.62 391.41 222.932 391.932 223.148 392.52C223.364 393.096 223.472 393.696 223.472 394.32C223.472 395.196 223.292 396.006 222.932 396.75C222.584 397.482 222.086 398.07 221.438 398.514C220.802 398.958 220.064 399.18 219.224 399.18ZM218.882 398.1C219.566 398.1 220.154 397.92 220.646 397.56C221.15 397.188 221.54 396.714 221.816 396.138C222.092 395.562 222.23 394.956 222.23 394.32C222.23 393.648 222.074 393.024 221.762 392.448C221.45 391.872 221.03 391.41 220.502 391.062C219.986 390.714 219.398 390.54 218.738 390.54C218.33 390.54 217.898 390.648 217.442 390.864C216.998 391.068 216.602 391.35 216.254 391.71C215.918 392.058 215.72 392.442 215.66 392.862V395.742C215.936 396.402 216.368 396.96 216.956 397.416C217.544 397.872 218.186 398.1 218.882 398.1ZM224.789 396.3C224.789 395.724 224.957 395.226 225.293 394.806C225.629 394.374 226.091 394.038 226.679 393.798C227.279 393.558 227.969 393.438 228.749 393.438C229.205 393.438 229.679 393.48 230.171 393.564C230.663 393.636 231.101 393.738 231.485 393.87V393.078C231.485 392.286 231.251 391.656 230.783 391.188C230.315 390.72 229.667 390.486 228.839 390.486C228.347 390.486 227.855 390.582 227.363 390.774C226.871 390.954 226.361 391.224 225.833 391.584L225.365 390.72C225.977 390.3 226.577 389.988 227.165 389.784C227.753 389.568 228.353 389.46 228.965 389.46C230.117 389.46 231.029 389.79 231.701 390.45C232.373 391.11 232.709 392.022 232.709 393.186V397.524C232.709 397.848 232.859 398.016 233.159 398.028V399C232.895 399.036 232.709 399.048 232.601 399.036C232.301 399.024 232.073 398.928 231.917 398.748C231.761 398.568 231.677 398.376 231.665 398.172L231.647 397.488C231.227 398.028 230.681 398.448 230.009 398.748C229.337 399.036 228.653 399.18 227.957 399.18C227.345 399.18 226.799 399.054 226.319 398.802C225.839 398.538 225.461 398.19 225.185 397.758C224.921 397.314 224.789 396.828 224.789 396.3ZM231.071 397.02C231.347 396.696 231.485 396.396 231.485 396.12V394.752C230.657 394.428 229.793 394.266 228.893 394.266C228.017 394.266 227.309 394.44 226.769 394.788C226.229 395.136 225.959 395.61 225.959 396.21C225.959 396.726 226.157 397.194 226.553 397.614C226.961 398.034 227.525 398.244 228.245 398.244C228.833 398.244 229.379 398.13 229.883 397.902C230.399 397.674 230.795 397.38 231.071 397.02ZM239.422 399.18C238.51 399.18 237.7 398.958 236.992 398.514C236.284 398.058 235.726 397.464 235.318 396.732C234.91 395.988 234.706 395.172 234.706 394.284C234.706 393.396 234.904 392.592 235.3 391.872C235.696 391.14 236.248 390.558 236.956 390.126C237.664 389.682 238.48 389.46 239.404 389.46C240.28 389.46 241.048 389.664 241.708 390.072C242.38 390.468 242.884 391.008 243.22 391.692L242.032 392.07C241.768 391.59 241.396 391.218 240.916 390.954C240.448 390.678 239.926 390.54 239.35 390.54C238.714 390.54 238.138 390.702 237.622 391.026C237.118 391.35 236.71 391.8 236.398 392.376C236.098 392.94 235.948 393.576 235.948 394.284C235.948 394.992 236.104 395.634 236.416 396.21C236.728 396.786 237.142 397.248 237.658 397.596C238.174 397.932 238.744 398.1 239.368 398.1C239.776 398.1 240.172 398.028 240.556 397.884C240.94 397.74 241.27 397.548 241.546 397.308C241.822 397.056 242.008 396.786 242.104 396.498L243.31 396.858C243.142 397.302 242.866 397.704 242.482 398.064C242.098 398.412 241.642 398.688 241.114 398.892C240.586 399.084 240.022 399.18 239.422 399.18ZM249.195 399.18C248.295 399.18 247.491 398.958 246.783 398.514C246.075 398.07 245.517 397.476 245.109 396.732C244.701 395.988 244.497 395.172 244.497 394.284C244.497 393.408 244.695 392.604 245.091 391.872C245.499 391.14 246.057 390.558 246.765 390.126C247.473 389.682 248.277 389.46 249.177 389.46C250.101 389.46 250.911 389.682 251.607 390.126C252.303 390.57 252.843 391.158 253.227 391.89C253.623 392.61 253.821 393.402 253.821 394.266C253.821 394.458 253.815 394.62 253.803 394.752H245.775C245.835 395.424 246.027 396.024 246.351 396.552C246.675 397.068 247.089 397.482 247.593 397.794C248.097 398.094 248.649 398.244 249.249 398.244C249.861 398.244 250.437 398.088 250.977 397.776C251.517 397.464 251.901 397.056 252.129 396.552L253.191 396.84C252.999 397.296 252.699 397.704 252.291 398.064C251.895 398.412 251.433 398.688 250.905 398.892C250.377 399.084 249.807 399.18 249.195 399.18ZM245.739 393.87H252.669C252.621 393.198 252.435 392.604 252.111 392.088C251.787 391.56 251.373 391.152 250.869 390.864C250.365 390.564 249.807 390.414 249.195 390.414C248.583 390.414 248.025 390.564 247.521 390.864C247.017 391.152 246.603 391.56 246.279 392.088C245.967 392.604 245.787 393.198 245.739 393.87Z" fill="#86878B"/>
<rect x="11" y="417" width="370" height="50" fill="white" stroke="#F5F5F5" stroke-width="2"/>
<path d="M144.949 447.884V449H138.847V447.884H141.403V440.18C141.271 440.36 141.031 440.564 140.683 440.792C140.335 441.02 139.957 441.218 139.549 441.386C139.141 441.542 138.781 441.62 138.469 441.62V440.432C138.745 440.432 139.045 440.354 139.369 440.198C139.705 440.042 140.017 439.862 140.305 439.658C140.605 439.442 140.857 439.244 141.061 439.064C141.265 438.884 141.379 438.77 141.403 438.722H142.663V447.884H144.949ZM156.66 449.09C155.796 449.09 154.998 448.91 154.266 448.55C153.546 448.178 152.916 447.68 152.376 447.056C151.836 446.432 151.416 445.736 151.116 444.968C150.828 444.188 150.684 443.396 150.684 442.592C150.684 441.74 150.828 440.93 151.116 440.162C151.416 439.382 151.83 438.692 152.358 438.092C152.886 437.48 153.51 437 154.23 436.652C154.95 436.304 155.736 436.13 156.588 436.13C157.848 436.13 158.874 436.388 159.666 436.904C160.458 437.42 161.058 438.092 161.466 438.92L160.494 439.568C160.086 438.776 159.54 438.194 158.856 437.822C158.172 437.45 157.41 437.264 156.57 437.264C155.862 437.264 155.22 437.414 154.644 437.714C154.08 438.014 153.594 438.416 153.186 438.92C152.79 439.424 152.484 439.994 152.268 440.63C152.052 441.266 151.944 441.926 151.944 442.61C151.944 443.33 152.064 444.014 152.304 444.662C152.544 445.298 152.88 445.868 153.312 446.372C153.756 446.864 154.266 447.254 154.842 447.542C155.43 447.818 156.066 447.956 156.75 447.956C157.482 447.956 158.178 447.782 158.838 447.434C159.51 447.086 160.152 446.546 160.764 445.814V443.69H157.92V442.718H161.826V449H160.764V447.128C159.588 448.436 158.22 449.09 156.66 449.09ZM168.753 449.18C168.021 449.18 167.343 448.994 166.719 448.622C166.095 448.238 165.609 447.758 165.261 447.182V449H164.163V435.86H165.387V441.584C165.807 440.948 166.311 440.438 166.899 440.054C167.487 439.658 168.171 439.46 168.951 439.46C169.611 439.46 170.199 439.598 170.715 439.874C171.243 440.15 171.693 440.522 172.064 440.99C172.437 441.446 172.719 441.968 172.911 442.556C173.103 443.132 173.199 443.726 173.199 444.338C173.199 445.214 173.001 446.018 172.605 446.75C172.221 447.482 171.693 448.07 171.021 448.514C170.349 448.958 169.593 449.18 168.753 449.18ZM168.465 448.1C169.149 448.1 169.749 447.92 170.265 447.56C170.793 447.2 171.207 446.738 171.507 446.174C171.807 445.598 171.957 444.986 171.957 444.338C171.957 443.678 171.813 443.06 171.525 442.484C171.249 441.908 170.859 441.44 170.355 441.08C169.851 440.72 169.269 440.54 168.609 440.54C167.877 440.54 167.229 440.774 166.665 441.242C166.113 441.71 165.687 442.256 165.387 442.88V445.796C165.447 446.228 165.645 446.618 165.981 446.966C166.317 447.314 166.713 447.59 167.169 447.794C167.625 447.998 168.057 448.1 168.465 448.1ZM185.26 449.09C184.36 449.09 183.544 448.91 182.812 448.55C182.08 448.178 181.45 447.686 180.922 447.074C180.394 446.462 179.986 445.772 179.698 445.004C179.41 444.224 179.266 443.426 179.266 442.61C179.266 441.758 179.416 440.948 179.716 440.18C180.016 439.4 180.436 438.71 180.976 438.11C181.528 437.498 182.17 437.018 182.902 436.67C183.634 436.31 184.426 436.13 185.278 436.13C186.166 436.13 186.976 436.316 187.708 436.688C188.44 437.06 189.07 437.558 189.598 438.182C190.138 438.806 190.546 439.502 190.822 440.27C191.11 441.038 191.254 441.824 191.254 442.628C191.254 443.48 191.104 444.296 190.804 445.076C190.504 445.844 190.084 446.534 189.544 447.146C189.004 447.746 188.368 448.22 187.636 448.568C186.904 448.916 186.112 449.09 185.26 449.09ZM180.526 442.61C180.526 443.306 180.64 443.972 180.868 444.608C181.096 445.244 181.42 445.814 181.84 446.318C182.26 446.822 182.758 447.224 183.334 447.524C183.922 447.812 184.564 447.956 185.26 447.956C185.992 447.956 186.646 447.806 187.222 447.506C187.81 447.194 188.308 446.78 188.716 446.264C189.136 445.748 189.454 445.178 189.67 444.554C189.886 443.918 189.994 443.27 189.994 442.61C189.994 441.914 189.88 441.248 189.652 440.612C189.424 439.976 189.094 439.406 188.662 438.902C188.242 438.398 187.744 438.002 187.168 437.714C186.592 437.426 185.956 437.282 185.26 437.282C184.54 437.282 183.886 437.432 183.298 437.732C182.722 438.032 182.224 438.44 181.804 438.956C181.396 439.46 181.078 440.03 180.85 440.666C180.634 441.302 180.526 441.95 180.526 442.61ZM193.827 449V440.594H192.531V439.622H193.827V439.37C193.827 438.218 194.073 437.318 194.565 436.67C195.069 436.01 195.741 435.68 196.581 435.68C196.941 435.68 197.295 435.734 197.643 435.842C198.003 435.95 198.309 436.094 198.561 436.274L198.183 437.156C197.823 436.88 197.367 436.742 196.815 436.742C196.251 436.742 195.813 436.964 195.501 437.408C195.201 437.852 195.051 438.494 195.051 439.334V439.622H197.643V440.594H195.051V449H193.827ZM211.224 438.614C210.864 438.218 210.384 437.894 209.784 437.642C209.184 437.378 208.5 437.246 207.732 437.246C206.604 437.246 205.782 437.462 205.266 437.894C204.75 438.314 204.492 438.89 204.492 439.622C204.492 440.126 204.618 440.522 204.87 440.81C205.122 441.098 205.506 441.338 206.022 441.53C206.55 441.71 207.222 441.89 208.038 442.07C208.95 442.262 209.736 442.49 210.396 442.754C211.056 443.018 211.566 443.378 211.926 443.834C212.286 444.278 212.466 444.884 212.466 445.652C212.466 446.432 212.268 447.08 211.872 447.596C211.476 448.112 210.93 448.496 210.234 448.748C209.538 448.988 208.746 449.108 207.858 449.108C205.866 449.108 204.156 448.49 202.728 447.254L203.358 446.228C203.814 446.708 204.438 447.122 205.23 447.47C206.034 447.818 206.922 447.992 207.894 447.992C208.902 447.992 209.694 447.806 210.27 447.434C210.846 447.062 211.134 446.51 211.134 445.778C211.134 445.25 210.99 444.83 210.702 444.518C210.414 444.194 209.982 443.93 209.406 443.726C208.83 443.522 208.122 443.324 207.282 443.132C206.394 442.928 205.644 442.7 205.032 442.448C204.432 442.196 203.976 441.866 203.664 441.458C203.352 441.05 203.196 440.498 203.196 439.802C203.196 439.01 203.388 438.344 203.772 437.804C204.168 437.252 204.708 436.838 205.392 436.562C206.076 436.274 206.862 436.13 207.75 436.13C208.59 436.13 209.346 436.262 210.018 436.526C210.69 436.778 211.296 437.138 211.836 437.606L211.224 438.614ZM219.224 449.18C218.444 449.18 217.742 448.976 217.118 448.568C216.506 448.16 216.02 447.656 215.66 447.056V452.834H214.436V439.622H215.534V441.44C215.906 440.852 216.398 440.378 217.01 440.018C217.634 439.646 218.306 439.46 219.026 439.46C219.674 439.46 220.268 439.598 220.808 439.874C221.348 440.138 221.816 440.498 222.212 440.954C222.62 441.41 222.932 441.932 223.148 442.52C223.364 443.096 223.472 443.696 223.472 444.32C223.472 445.196 223.292 446.006 222.932 446.75C222.584 447.482 222.086 448.07 221.438 448.514C220.802 448.958 220.064 449.18 219.224 449.18ZM218.882 448.1C219.566 448.1 220.154 447.92 220.646 447.56C221.15 447.188 221.54 446.714 221.816 446.138C222.092 445.562 222.23 444.956 222.23 444.32C222.23 443.648 222.074 443.024 221.762 442.448C221.45 441.872 221.03 441.41 220.502 441.062C219.986 440.714 219.398 440.54 218.738 440.54C218.33 440.54 217.898 440.648 217.442 440.864C216.998 441.068 216.602 441.35 216.254 441.71C215.918 442.058 215.72 442.442 215.66 442.862V445.742C215.936 446.402 216.368 446.96 216.956 447.416C217.544 447.872 218.186 448.1 218.882 448.1ZM224.789 446.3C224.789 445.724 224.957 445.226 225.293 444.806C225.629 444.374 226.091 444.038 226.679 443.798C227.279 443.558 227.969 443.438 228.749 443.438C229.205 443.438 229.679 443.48 230.171 443.564C230.663 443.636 231.101 443.738 231.485 443.87V443.078C231.485 442.286 231.251 441.656 230.783 441.188C230.315 440.72 229.667 440.486 228.839 440.486C228.347 440.486 227.855 440.582 227.363 440.774C226.871 440.954 226.361 441.224 225.833 441.584L225.365 440.72C225.977 440.3 226.577 439.988 227.165 439.784C227.753 439.568 228.353 439.46 228.965 439.46C230.117 439.46 231.029 439.79 231.701 440.45C232.373 441.11 232.709 442.022 232.709 443.186V447.524C232.709 447.848 232.859 448.016 233.159 448.028V449C232.895 449.036 232.709 449.048 232.601 449.036C232.301 449.024 232.073 448.928 231.917 448.748C231.761 448.568 231.677 448.376 231.665 448.172L231.647 447.488C231.227 448.028 230.681 448.448 230.009 448.748C229.337 449.036 228.653 449.18 227.957 449.18C227.345 449.18 226.799 449.054 226.319 448.802C225.839 448.538 225.461 448.19 225.185 447.758C224.921 447.314 224.789 446.828 224.789 446.3ZM231.071 447.02C231.347 446.696 231.485 446.396 231.485 446.12V444.752C230.657 444.428 229.793 444.266 228.893 444.266C228.017 444.266 227.309 444.44 226.769 444.788C226.229 445.136 225.959 445.61 225.959 446.21C225.959 446.726 226.157 447.194 226.553 447.614C226.961 448.034 227.525 448.244 228.245 448.244C228.833 448.244 229.379 448.13 229.883 447.902C230.399 447.674 230.795 447.38 231.071 447.02ZM239.422 449.18C238.51 449.18 237.7 448.958 236.992 448.514C236.284 448.058 235.726 447.464 235.318 446.732C234.91 445.988 234.706 445.172 234.706 444.284C234.706 443.396 234.904 442.592 235.3 441.872C235.696 441.14 236.248 440.558 236.956 440.126C237.664 439.682 238.48 439.46 239.404 439.46C240.28 439.46 241.048 439.664 241.708 440.072C242.38 440.468 242.884 441.008 243.22 441.692L242.032 442.07C241.768 441.59 241.396 441.218 240.916 440.954C240.448 440.678 239.926 440.54 239.35 440.54C238.714 440.54 238.138 440.702 237.622 441.026C237.118 441.35 236.71 441.8 236.398 442.376C236.098 442.94 235.948 443.576 235.948 444.284C235.948 444.992 236.104 445.634 236.416 446.21C236.728 446.786 237.142 447.248 237.658 447.596C238.174 447.932 238.744 448.1 239.368 448.1C239.776 448.1 240.172 448.028 240.556 447.884C240.94 447.74 241.27 447.548 241.546 447.308C241.822 447.056 242.008 446.786 242.104 446.498L243.31 446.858C243.142 447.302 242.866 447.704 242.482 448.064C242.098 448.412 241.642 448.688 241.114 448.892C240.586 449.084 240.022 449.18 239.422 449.18ZM249.195 449.18C248.295 449.18 247.491 448.958 246.783 448.514C246.075 448.07 245.517 447.476 245.109 446.732C244.701 445.988 244.497 445.172 244.497 444.284C244.497 443.408 244.695 442.604 245.091 441.872C245.499 441.14 246.057 440.558 246.765 440.126C247.473 439.682 248.277 439.46 249.177 439.46C250.101 439.46 250.911 439.682 251.607 440.126C252.303 440.57 252.843 441.158 253.227 441.89C253.623 442.61 253.821 443.402 253.821 444.266C253.821 444.458 253.815 444.62 253.803 444.752H245.775C245.835 445.424 246.027 446.024 246.351 446.552C246.675 447.068 247.089 447.482 247.593 447.794C248.097 448.094 248.649 448.244 249.249 448.244C249.861 448.244 250.437 448.088 250.977 447.776C251.517 447.464 251.901 447.056 252.129 446.552L253.191 446.84C252.999 447.296 252.699 447.704 252.291 448.064C251.895 448.412 251.433 448.688 250.905 448.892C250.377 449.084 249.807 449.18 249.195 449.18ZM245.739 443.87H252.669C252.621 443.198 252.435 442.604 252.111 442.088C251.787 441.56 251.373 441.152 250.869 440.864C250.365 440.564 249.807 440.414 249.195 440.414C248.583 440.414 248.025 440.564 247.521 440.864C247.017 441.152 246.603 441.56 246.279 442.088C245.967 442.604 245.787 443.198 245.739 443.87Z" fill="#86878B"/>
<rect x="11" y="467" width="370" height="50" fill="white" stroke="#F5F5F5" stroke-width="2"/>
<path d="M144.949 497.884V499H138.847V497.884H141.403V490.18C141.271 490.36 141.031 490.564 140.683 490.792C140.335 491.02 139.957 491.218 139.549 491.386C139.141 491.542 138.781 491.62 138.469 491.62V490.432C138.745 490.432 139.045 490.354 139.369 490.198C139.705 490.042 140.017 489.862 140.305 489.658C140.605 489.442 140.857 489.244 141.061 489.064C141.265 488.884 141.379 488.77 141.403 488.722H142.663V497.884H144.949ZM156.66 499.09C155.796 499.09 154.998 498.91 154.266 498.55C153.546 498.178 152.916 497.68 152.376 497.056C151.836 496.432 151.416 495.736 151.116 494.968C150.828 494.188 150.684 493.396 150.684 492.592C150.684 491.74 150.828 490.93 151.116 490.162C151.416 489.382 151.83 488.692 152.358 488.092C152.886 487.48 153.51 487 154.23 486.652C154.95 486.304 155.736 486.13 156.588 486.13C157.848 486.13 158.874 486.388 159.666 486.904C160.458 487.42 161.058 488.092 161.466 488.92L160.494 489.568C160.086 488.776 159.54 488.194 158.856 487.822C158.172 487.45 157.41 487.264 156.57 487.264C155.862 487.264 155.22 487.414 154.644 487.714C154.08 488.014 153.594 488.416 153.186 488.92C152.79 489.424 152.484 489.994 152.268 490.63C152.052 491.266 151.944 491.926 151.944 492.61C151.944 493.33 152.064 494.014 152.304 494.662C152.544 495.298 152.88 495.868 153.312 496.372C153.756 496.864 154.266 497.254 154.842 497.542C155.43 497.818 156.066 497.956 156.75 497.956C157.482 497.956 158.178 497.782 158.838 497.434C159.51 497.086 160.152 496.546 160.764 495.814V493.69H157.92V492.718H161.826V499H160.764V497.128C159.588 498.436 158.22 499.09 156.66 499.09ZM168.753 499.18C168.021 499.18 167.343 498.994 166.719 498.622C166.095 498.238 165.609 497.758 165.261 497.182V499H164.163V485.86H165.387V491.584C165.807 490.948 166.311 490.438 166.899 490.054C167.487 489.658 168.171 489.46 168.951 489.46C169.611 489.46 170.199 489.598 170.715 489.874C171.243 490.15 171.693 490.522 172.064 490.99C172.437 491.446 172.719 491.968 172.911 492.556C173.103 493.132 173.199 493.726 173.199 494.338C173.199 495.214 173.001 496.018 172.605 496.75C172.221 497.482 171.693 498.07 171.021 498.514C170.349 498.958 169.593 499.18 168.753 499.18ZM168.465 498.1C169.149 498.1 169.749 497.92 170.265 497.56C170.793 497.2 171.207 496.738 171.507 496.174C171.807 495.598 171.957 494.986 171.957 494.338C171.957 493.678 171.813 493.06 171.525 492.484C171.249 491.908 170.859 491.44 170.355 491.08C169.851 490.72 169.269 490.54 168.609 490.54C167.877 490.54 167.229 490.774 166.665 491.242C166.113 491.71 165.687 492.256 165.387 492.88V495.796C165.447 496.228 165.645 496.618 165.981 496.966C166.317 497.314 166.713 497.59 167.169 497.794C167.625 497.998 168.057 498.1 168.465 498.1ZM185.26 499.09C184.36 499.09 183.544 498.91 182.812 498.55C182.08 498.178 181.45 497.686 180.922 497.074C180.394 496.462 179.986 495.772 179.698 495.004C179.41 494.224 179.266 493.426 179.266 492.61C179.266 491.758 179.416 490.948 179.716 490.18C180.016 489.4 180.436 488.71 180.976 488.11C181.528 487.498 182.17 487.018 182.902 486.67C183.634 486.31 184.426 486.13 185.278 486.13C186.166 486.13 186.976 486.316 187.708 486.688C188.44 487.06 189.07 487.558 189.598 488.182C190.138 488.806 190.546 489.502 190.822 490.27C191.11 491.038 191.254 491.824 191.254 492.628C191.254 493.48 191.104 494.296 190.804 495.076C190.504 495.844 190.084 496.534 189.544 497.146C189.004 497.746 188.368 498.22 187.636 498.568C186.904 498.916 186.112 499.09 185.26 499.09ZM180.526 492.61C180.526 493.306 180.64 493.972 180.868 494.608C181.096 495.244 181.42 495.814 181.84 496.318C182.26 496.822 182.758 497.224 183.334 497.524C183.922 497.812 184.564 497.956 185.26 497.956C185.992 497.956 186.646 497.806 187.222 497.506C187.81 497.194 188.308 496.78 188.716 496.264C189.136 495.748 189.454 495.178 189.67 494.554C189.886 493.918 189.994 493.27 189.994 492.61C189.994 491.914 189.88 491.248 189.652 490.612C189.424 489.976 189.094 489.406 188.662 488.902C188.242 488.398 187.744 488.002 187.168 487.714C186.592 487.426 185.956 487.282 185.26 487.282C184.54 487.282 183.886 487.432 183.298 487.732C182.722 488.032 182.224 488.44 181.804 488.956C181.396 489.46 181.078 490.03 180.85 490.666C180.634 491.302 180.526 491.95 180.526 492.61ZM193.827 499V490.594H192.531V489.622H193.827V489.37C193.827 488.218 194.073 487.318 194.565 486.67C195.069 486.01 195.741 485.68 196.581 485.68C196.941 485.68 197.295 485.734 197.643 485.842C198.003 485.95 198.309 486.094 198.561 486.274L198.183 487.156C197.823 486.88 197.367 486.742 196.815 486.742C196.251 486.742 195.813 486.964 195.501 487.408C195.201 487.852 195.051 488.494 195.051 489.334V489.622H197.643V490.594H195.051V499H193.827ZM211.224 488.614C210.864 488.218 210.384 487.894 209.784 487.642C209.184 487.378 208.5 487.246 207.732 487.246C206.604 487.246 205.782 487.462 205.266 487.894C204.75 488.314 204.492 488.89 204.492 489.622C204.492 490.126 204.618 490.522 204.87 490.81C205.122 491.098 205.506 491.338 206.022 491.53C206.55 491.71 207.222 491.89 208.038 492.07C208.95 492.262 209.736 492.49 210.396 492.754C211.056 493.018 211.566 493.378 211.926 493.834C212.286 494.278 212.466 494.884 212.466 495.652C212.466 496.432 212.268 497.08 211.872 497.596C211.476 498.112 210.93 498.496 210.234 498.748C209.538 498.988 208.746 499.108 207.858 499.108C205.866 499.108 204.156 498.49 202.728 497.254L203.358 496.228C203.814 496.708 204.438 497.122 205.23 497.47C206.034 497.818 206.922 497.992 207.894 497.992C208.902 497.992 209.694 497.806 210.27 497.434C210.846 497.062 211.134 496.51 211.134 495.778C211.134 495.25 210.99 494.83 210.702 494.518C210.414 494.194 209.982 493.93 209.406 493.726C208.83 493.522 208.122 493.324 207.282 493.132C206.394 492.928 205.644 492.7 205.032 492.448C204.432 492.196 203.976 491.866 203.664 491.458C203.352 491.05 203.196 490.498 203.196 489.802C203.196 489.01 203.388 488.344 203.772 487.804C204.168 487.252 204.708 486.838 205.392 486.562C206.076 486.274 206.862 486.13 207.75 486.13C208.59 486.13 209.346 486.262 210.018 486.526C210.69 486.778 211.296 487.138 211.836 487.606L211.224 488.614ZM219.224 499.18C218.444 499.18 217.742 498.976 217.118 498.568C216.506 498.16 216.02 497.656 215.66 497.056V502.834H214.436V489.622H215.534V491.44C215.906 490.852 216.398 490.378 217.01 490.018C217.634 489.646 218.306 489.46 219.026 489.46C219.674 489.46 220.268 489.598 220.808 489.874C221.348 490.138 221.816 490.498 222.212 490.954C222.62 491.41 222.932 491.932 223.148 492.52C223.364 493.096 223.472 493.696 223.472 494.32C223.472 495.196 223.292 496.006 222.932 496.75C222.584 497.482 222.086 498.07 221.438 498.514C220.802 498.958 220.064 499.18 219.224 499.18ZM218.882 498.1C219.566 498.1 220.154 497.92 220.646 497.56C221.15 497.188 221.54 496.714 221.816 496.138C222.092 495.562 222.23 494.956 222.23 494.32C222.23 493.648 222.074 493.024 221.762 492.448C221.45 491.872 221.03 491.41 220.502 491.062C219.986 490.714 219.398 490.54 218.738 490.54C218.33 490.54 217.898 490.648 217.442 490.864C216.998 491.068 216.602 491.35 216.254 491.71C215.918 492.058 215.72 492.442 215.66 492.862V495.742C215.936 496.402 216.368 496.96 216.956 497.416C217.544 497.872 218.186 498.1 218.882 498.1ZM224.789 496.3C224.789 495.724 224.957 495.226 225.293 494.806C225.629 494.374 226.091 494.038 226.679 493.798C227.279 493.558 227.969 493.438 228.749 493.438C229.205 493.438 229.679 493.48 230.171 493.564C230.663 493.636 231.101 493.738 231.485 493.87V493.078C231.485 492.286 231.251 491.656 230.783 491.188C230.315 490.72 229.667 490.486 228.839 490.486C228.347 490.486 227.855 490.582 227.363 490.774C226.871 490.954 226.361 491.224 225.833 491.584L225.365 490.72C225.977 490.3 226.577 489.988 227.165 489.784C227.753 489.568 228.353 489.46 228.965 489.46C230.117 489.46 231.029 489.79 231.701 490.45C232.373 491.11 232.709 492.022 232.709 493.186V497.524C232.709 497.848 232.859 498.016 233.159 498.028V499C232.895 499.036 232.709 499.048 232.601 499.036C232.301 499.024 232.073 498.928 231.917 498.748C231.761 498.568 231.677 498.376 231.665 498.172L231.647 497.488C231.227 498.028 230.681 498.448 230.009 498.748C229.337 499.036 228.653 499.18 227.957 499.18C227.345 499.18 226.799 499.054 226.319 498.802C225.839 498.538 225.461 498.19 225.185 497.758C224.921 497.314 224.789 496.828 224.789 496.3ZM231.071 497.02C231.347 496.696 231.485 496.396 231.485 496.12V494.752C230.657 494.428 229.793 494.266 228.893 494.266C228.017 494.266 227.309 494.44 226.769 494.788C226.229 495.136 225.959 495.61 225.959 496.21C225.959 496.726 226.157 497.194 226.553 497.614C226.961 498.034 227.525 498.244 228.245 498.244C228.833 498.244 229.379 498.13 229.883 497.902C230.399 497.674 230.795 497.38 231.071 497.02ZM239.422 499.18C238.51 499.18 237.7 498.958 236.992 498.514C236.284 498.058 235.726 497.464 235.318 496.732C234.91 495.988 234.706 495.172 234.706 494.284C234.706 493.396 234.904 492.592 235.3 491.872C235.696 491.14 236.248 490.558 236.956 490.126C237.664 489.682 238.48 489.46 239.404 489.46C240.28 489.46 241.048 489.664 241.708 490.072C242.38 490.468 242.884 491.008 243.22 491.692L242.032 492.07C241.768 491.59 241.396 491.218 240.916 490.954C240.448 490.678 239.926 490.54 239.35 490.54C238.714 490.54 238.138 490.702 237.622 491.026C237.118 491.35 236.71 491.8 236.398 492.376C236.098 492.94 235.948 493.576 235.948 494.284C235.948 494.992 236.104 495.634 236.416 496.21C236.728 496.786 237.142 497.248 237.658 497.596C238.174 497.932 238.744 498.1 239.368 498.1C239.776 498.1 240.172 498.028 240.556 497.884C240.94 497.74 241.27 497.548 241.546 497.308C241.822 497.056 242.008 496.786 242.104 496.498L243.31 496.858C243.142 497.302 242.866 497.704 242.482 498.064C242.098 498.412 241.642 498.688 241.114 498.892C240.586 499.084 240.022 499.18 239.422 499.18ZM249.195 499.18C248.295 499.18 247.491 498.958 246.783 498.514C246.075 498.07 245.517 497.476 245.109 496.732C244.701 495.988 244.497 495.172 244.497 494.284C244.497 493.408 244.695 492.604 245.091 491.872C245.499 491.14 246.057 490.558 246.765 490.126C247.473 489.682 248.277 489.46 249.177 489.46C250.101 489.46 250.911 489.682 251.607 490.126C252.303 490.57 252.843 491.158 253.227 491.89C253.623 492.61 253.821 493.402 253.821 494.266C253.821 494.458 253.815 494.62 253.803 494.752H245.775C245.835 495.424 246.027 496.024 246.351 496.552C246.675 497.068 247.089 497.482 247.593 497.794C248.097 498.094 248.649 498.244 249.249 498.244C249.861 498.244 250.437 498.088 250.977 497.776C251.517 497.464 251.901 497.056 252.129 496.552L253.191 496.84C252.999 497.296 252.699 497.704 252.291 498.064C251.895 498.412 251.433 498.688 250.905 498.892C250.377 499.084 249.807 499.18 249.195 499.18ZM245.739 493.87H252.669C252.621 493.198 252.435 492.604 252.111 492.088C251.787 491.56 251.373 491.152 250.869 490.864C250.365 490.564 249.807 490.414 249.195 490.414C248.583 490.414 248.025 490.564 247.521 490.864C247.017 491.152 246.603 491.56 246.279 492.088C245.967 492.604 245.787 493.198 245.739 493.87Z" fill="#86878B"/>
<rect x="11" y="167" width="370" height="50" fill="#333333" stroke="#F5F5F5" stroke-width="2"/>
<path d="M150.827 199V186.22H159.215V187.336H152.087V192.034H158.099V193.078H152.087V199H150.827ZM165.169 190.702C164.353 190.726 163.633 190.954 163.009 191.386C162.397 191.818 161.965 192.412 161.713 193.168V199H160.489V189.622H161.641V191.872C161.965 191.212 162.391 190.678 162.919 190.27C163.459 189.862 164.029 189.634 164.629 189.586C164.749 189.574 164.851 189.568 164.935 189.568C165.019 189.568 165.097 189.574 165.169 189.586V190.702ZM170.568 199.18C169.668 199.18 168.864 198.958 168.156 198.514C167.448 198.07 166.89 197.476 166.482 196.732C166.074 195.988 165.87 195.172 165.87 194.284C165.87 193.408 166.068 192.604 166.464 191.872C166.872 191.14 167.43 190.558 168.138 190.126C168.846 189.682 169.65 189.46 170.55 189.46C171.474 189.46 172.284 189.682 172.98 190.126C173.676 190.57 174.216 191.158 174.6 191.89C174.996 192.61 175.194 193.402 175.194 194.266C175.194 194.458 175.188 194.62 175.176 194.752H167.148C167.208 195.424 167.4 196.024 167.724 196.552C168.048 197.068 168.462 197.482 168.966 197.794C169.47 198.094 170.022 198.244 170.622 198.244C171.234 198.244 171.81 198.088 172.35 197.776C172.89 197.464 173.274 197.056 173.502 196.552L174.564 196.84C174.372 197.296 174.072 197.704 173.664 198.064C173.268 198.412 172.806 198.688 172.278 198.892C171.75 199.084 171.18 199.18 170.568 199.18ZM167.112 193.87H174.042C173.994 193.198 173.808 192.604 173.484 192.088C173.16 191.56 172.746 191.152 172.242 190.864C171.738 190.564 171.18 190.414 170.568 190.414C169.956 190.414 169.398 190.564 168.894 190.864C168.39 191.152 167.976 191.56 167.652 192.088C167.34 192.604 167.16 193.198 167.112 193.87ZM181.132 199.18C180.232 199.18 179.428 198.958 178.72 198.514C178.012 198.07 177.454 197.476 177.046 196.732C176.638 195.988 176.434 195.172 176.434 194.284C176.434 193.408 176.632 192.604 177.028 191.872C177.436 191.14 177.994 190.558 178.702 190.126C179.41 189.682 180.214 189.46 181.114 189.46C182.038 189.46 182.848 189.682 183.544 190.126C184.24 190.57 184.78 191.158 185.164 191.89C185.56 192.61 185.758 193.402 185.758 194.266C185.758 194.458 185.752 194.62 185.74 194.752H177.712C177.772 195.424 177.964 196.024 178.288 196.552C178.612 197.068 179.026 197.482 179.53 197.794C180.034 198.094 180.586 198.244 181.186 198.244C181.798 198.244 182.374 198.088 182.914 197.776C183.454 197.464 183.838 197.056 184.066 196.552L185.128 196.84C184.936 197.296 184.636 197.704 184.228 198.064C183.832 198.412 183.37 198.688 182.842 198.892C182.314 199.084 181.744 199.18 181.132 199.18ZM177.676 193.87H184.606C184.558 193.198 184.372 192.604 184.048 192.088C183.724 191.56 183.31 191.152 182.806 190.864C182.302 190.564 181.744 190.414 181.132 190.414C180.52 190.414 179.962 190.564 179.458 190.864C178.954 191.152 178.54 191.56 178.216 192.088C177.904 192.604 177.724 193.198 177.676 193.87ZM192.685 199V190.594H191.389V189.622H192.685V189.37C192.685 188.218 192.931 187.318 193.423 186.67C193.927 186.01 194.599 185.68 195.439 185.68C195.799 185.68 196.153 185.734 196.501 185.842C196.861 185.95 197.167 186.094 197.419 186.274L197.041 187.156C196.681 186.88 196.225 186.742 195.673 186.742C195.109 186.742 194.671 186.964 194.359 187.408C194.059 187.852 193.909 188.494 193.909 189.334V189.622H196.501V190.594H193.909V199H192.685ZM201.891 199.18C200.991 199.18 200.187 198.958 199.479 198.514C198.783 198.07 198.237 197.482 197.841 196.75C197.445 196.006 197.247 195.202 197.247 194.338C197.247 193.462 197.445 192.658 197.841 191.926C198.249 191.182 198.801 190.588 199.497 190.144C200.205 189.688 201.003 189.46 201.891 189.46C202.791 189.46 203.589 189.688 204.285 190.144C204.993 190.588 205.545 191.182 205.941 191.926C206.349 192.658 206.553 193.462 206.553 194.338C206.553 195.202 206.355 196.006 205.959 196.75C205.563 197.482 205.011 198.07 204.303 198.514C203.607 198.958 202.803 199.18 201.891 199.18ZM198.489 194.356C198.489 195.052 198.639 195.688 198.939 196.264C199.251 196.828 199.665 197.278 200.181 197.614C200.697 197.938 201.267 198.1 201.891 198.1C202.515 198.1 203.085 197.932 203.601 197.596C204.117 197.26 204.531 196.804 204.843 196.228C205.155 195.652 205.311 195.016 205.311 194.32C205.311 193.624 205.155 192.988 204.843 192.412C204.531 191.836 204.117 191.38 203.601 191.044C203.085 190.708 202.515 190.54 201.891 190.54C201.279 190.54 200.715 190.714 200.199 191.062C199.683 191.398 199.269 191.854 198.957 192.43C198.645 193.006 198.489 193.648 198.489 194.356ZM213.28 190.702C212.464 190.726 211.744 190.954 211.12 191.386C210.508 191.818 210.076 192.412 209.824 193.168V199H208.6V189.622H209.752V191.872C210.076 191.212 210.502 190.678 211.03 190.27C211.57 189.862 212.14 189.634 212.74 189.586C212.86 189.574 212.962 189.568 213.046 189.568C213.13 189.568 213.208 189.574 213.28 189.586V190.702ZM219.131 185.86H220.355V196.876C220.355 197.344 220.433 197.65 220.589 197.794C220.757 197.938 220.967 198.01 221.219 198.01C221.435 198.01 221.651 197.986 221.867 197.938C222.095 197.89 222.281 197.842 222.425 197.794L222.641 198.784C222.413 198.88 222.131 198.958 221.795 199.018C221.471 199.078 221.189 199.108 220.949 199.108C220.397 199.108 219.953 198.946 219.617 198.622C219.293 198.298 219.131 197.854 219.131 197.29V185.86ZM223.981 187.66V185.86H225.205V187.66H223.981ZM223.981 199V189.622H225.205V199H223.981ZM228.351 199V190.594H227.055V189.622H228.351V189.37C228.351 188.218 228.597 187.318 229.089 186.67C229.593 186.01 230.265 185.68 231.105 185.68C231.465 185.68 231.819 185.734 232.167 185.842C232.527 185.95 232.833 186.094 233.085 186.274L232.707 187.156C232.347 186.88 231.891 186.742 231.339 186.742C230.775 186.742 230.337 186.964 230.025 187.408C229.725 187.852 229.575 188.494 229.575 189.334V189.622H232.167V190.594H229.575V199H228.351ZM237.611 199.18C236.711 199.18 235.907 198.958 235.199 198.514C234.491 198.07 233.933 197.476 233.525 196.732C233.117 195.988 232.913 195.172 232.913 194.284C232.913 193.408 233.111 192.604 233.507 191.872C233.915 191.14 234.473 190.558 235.181 190.126C235.889 189.682 236.693 189.46 237.593 189.46C238.517 189.46 239.327 189.682 240.023 190.126C240.719 190.57 241.259 191.158 241.643 191.89C242.039 192.61 242.237 193.402 242.237 194.266C242.237 194.458 242.231 194.62 242.219 194.752H234.191C234.251 195.424 234.443 196.024 234.767 196.552C235.091 197.068 235.505 197.482 236.009 197.794C236.513 198.094 237.065 198.244 237.665 198.244C238.277 198.244 238.853 198.088 239.393 197.776C239.933 197.464 240.317 197.056 240.545 196.552L241.607 196.84C241.415 197.296 241.115 197.704 240.707 198.064C240.311 198.412 239.849 198.688 239.321 198.892C238.793 199.084 238.223 199.18 237.611 199.18ZM234.155 193.87H241.085C241.037 193.198 240.851 192.604 240.527 192.088C240.203 191.56 239.789 191.152 239.285 190.864C238.781 190.564 238.223 190.414 237.611 190.414C236.999 190.414 236.441 190.564 235.937 190.864C235.433 191.152 235.019 191.56 234.695 192.088C234.383 192.604 234.203 193.198 234.155 193.87Z" fill="white" fill-opacity="0.5"/>
<rect x="11" y="67" width="370" height="100" fill="#333333" stroke="#F5F5F5" stroke-width="2"/>
<path d="M181.199 111.136C181.007 110.92 180.611 110.644 180.011 110.308C179.435 109.948 178.727 109.612 177.887 109.3C177.071 108.988 176.207 108.784 175.295 108.688V114.916C175.415 114.94 175.535 114.976 175.655 115.024C175.799 115.048 175.943 115.084 176.087 115.132C177.767 115.564 179.219 116.068 180.443 116.644C181.667 117.22 182.615 117.988 183.287 118.948C183.959 119.884 184.295 121.132 184.295 122.692C184.295 124.42 183.899 125.836 183.107 126.94C182.315 128.02 181.259 128.824 179.939 129.352C178.643 129.88 177.215 130.18 175.655 130.252V134.212H173.243V130.216C171.587 130.072 169.967 129.724 168.383 129.172C166.799 128.596 165.371 127.864 164.099 126.976L166.295 122.692C166.559 122.956 167.039 123.304 167.735 123.736C168.455 124.144 169.319 124.552 170.327 124.96C171.335 125.344 172.415 125.608 173.567 125.752V119.56C173.375 119.488 173.171 119.428 172.955 119.38C172.763 119.332 172.571 119.272 172.379 119.2C170.747 118.744 169.391 118.24 168.311 117.688C167.255 117.112 166.451 116.404 165.899 115.564C165.371 114.7 165.107 113.608 165.107 112.288C165.107 110.68 165.467 109.312 166.187 108.184C166.907 107.032 167.879 106.132 169.103 105.484C170.327 104.836 171.707 104.44 173.243 104.296V100.66H175.655V104.296C177.167 104.416 178.583 104.752 179.903 105.304C181.247 105.832 182.411 106.432 183.395 107.104L181.199 111.136ZM170.255 111.496C170.255 112.288 170.531 112.9 171.083 113.332C171.635 113.74 172.463 114.112 173.567 114.448V108.652C171.359 108.844 170.255 109.792 170.255 111.496ZM179.003 123.196C179.003 122.38 178.667 121.744 177.995 121.288C177.347 120.832 176.447 120.424 175.295 120.064V125.824C177.767 125.728 179.003 124.852 179.003 123.196ZM187.059 130C187.059 128.584 187.215 127.324 187.527 126.22C187.863 125.116 188.439 124.12 189.255 123.232C190.071 122.344 191.223 121.48 192.711 120.64C194.031 119.944 195.135 119.356 196.023 118.876C196.911 118.396 197.583 117.94 198.039 117.508C198.519 117.052 198.759 116.524 198.759 115.924C198.759 115.204 198.471 114.592 197.895 114.088C197.319 113.56 196.503 113.296 195.447 113.296C194.295 113.296 193.299 113.572 192.459 114.124C191.643 114.676 190.935 115.312 190.335 116.032L187.275 112.504C187.707 112.048 188.355 111.556 189.219 111.028C190.083 110.5 191.115 110.044 192.315 109.66C193.515 109.276 194.835 109.084 196.275 109.084C198.723 109.084 200.619 109.66 201.963 110.812C203.331 111.94 204.015 113.404 204.015 115.204C204.015 116.332 203.751 117.292 203.223 118.084C202.719 118.852 202.083 119.512 201.315 120.064C200.571 120.592 199.851 121.06 199.155 121.468C197.619 122.236 196.407 122.908 195.519 123.484C194.655 124.06 193.959 124.78 193.431 125.644H204.411V130H187.059ZM226.352 119.452C226.352 121.564 225.944 123.448 225.128 125.104C224.336 126.736 223.232 128.02 221.816 128.956C220.424 129.892 218.84 130.36 217.064 130.36C215.288 130.36 213.692 129.892 212.276 128.956C210.884 128.02 209.78 126.736 208.964 125.104C208.172 123.448 207.776 121.564 207.776 119.452C207.776 117.34 208.172 115.468 208.964 113.836C209.78 112.18 210.884 110.884 212.276 109.948C213.692 108.988 215.288 108.508 217.064 108.508C218.84 108.508 220.424 108.988 221.816 109.948C223.232 110.884 224.336 112.18 225.128 113.836C225.944 115.468 226.352 117.34 226.352 119.452ZM221.492 119.452C221.492 117.532 221.072 115.972 220.232 114.772C219.416 113.548 218.36 112.936 217.064 112.936C215.72 112.936 214.64 113.548 213.824 114.772C213.008 115.972 212.6 117.532 212.6 119.452C212.6 121.372 213.008 122.932 213.824 124.132C214.64 125.332 215.72 125.932 217.064 125.932C218.36 125.932 219.416 125.332 220.232 124.132C221.072 122.932 221.492 121.372 221.492 119.452Z" fill="white"/>
<rect x="11" y="7" width="370" height="60" fill="#333333" stroke="#F5F5F5" stroke-width="2"/>
<path d="M168.637 37.4102C168.637 40.2461 167.934 42.4258 166.527 43.9492C165.121 45.4727 163.105 46.2344 160.48 46.2344C157.855 46.2344 155.84 45.4727 154.434 43.9492C153.027 42.4258 152.324 40.2383 152.324 37.3867C152.324 34.5352 153.027 32.3594 154.434 30.8594C155.848 29.3516 157.871 28.5977 160.504 28.5977C163.137 28.5977 165.148 29.3555 166.539 30.8711C167.938 32.3867 168.637 34.5664 168.637 37.4102ZM156.133 37.4102C156.133 39.3242 156.496 40.7656 157.223 41.7344C157.949 42.7031 159.035 43.1875 160.48 43.1875C163.379 43.1875 164.828 41.2617 164.828 37.4102C164.828 33.5508 163.387 31.6211 160.504 31.6211C159.059 31.6211 157.969 32.1094 157.234 33.0859C156.5 34.0547 156.133 35.4961 156.133 37.4102ZM179.102 46.2344C177.562 46.2344 176.355 45.6758 175.48 44.5586H175.293C175.418 45.6523 175.48 46.2852 175.48 46.457V51.7656H171.906V32.8984H174.812L175.316 34.5977H175.48C176.316 33.3008 177.555 32.6523 179.195 32.6523C180.742 32.6523 181.953 33.25 182.828 34.4453C183.703 35.6406 184.141 37.3008 184.141 39.4258C184.141 40.8242 183.934 42.0391 183.52 43.0703C183.113 44.1016 182.531 44.8867 181.773 45.4258C181.016 45.9648 180.125 46.2344 179.102 46.2344ZM178.047 35.5117C177.164 35.5117 176.52 35.7852 176.113 36.332C175.707 36.8711 175.496 37.7656 175.48 39.0156V39.4023C175.48 40.8086 175.688 41.8164 176.102 42.4258C176.523 43.0352 177.188 43.3398 178.094 43.3398C179.695 43.3398 180.496 42.0195 180.496 39.3789C180.496 38.0898 180.297 37.125 179.898 36.4844C179.508 35.8359 178.891 35.5117 178.047 35.5117ZM192.613 43.3867C193.238 43.3867 193.988 43.25 194.863 42.9766V45.6367C193.973 46.0352 192.879 46.2344 191.582 46.2344C190.152 46.2344 189.109 45.875 188.453 45.1562C187.805 44.4297 187.48 43.3438 187.48 41.8984V35.582H185.77V34.0703L187.738 32.875L188.77 30.1094H191.055V32.8984H194.723V35.582H191.055V41.8984C191.055 42.4062 191.195 42.7812 191.477 43.0234C191.766 43.2656 192.145 43.3867 192.613 43.3867ZM197.371 29.5117C197.371 28.3477 198.02 27.7656 199.316 27.7656C200.613 27.7656 201.262 28.3477 201.262 29.5117C201.262 30.0664 201.098 30.5 200.77 30.8125C200.449 31.1172 199.965 31.2695 199.316 31.2695C198.02 31.2695 197.371 30.6836 197.371 29.5117ZM201.098 46H197.523V32.8984H201.098V46ZM216.59 46H213.016V38.3477C213.016 37.4023 212.855 36.6953 212.535 36.2266C212.223 35.75 211.727 35.5117 211.047 35.5117C210.133 35.5117 209.469 35.8477 209.055 36.5195C208.641 37.1914 208.434 38.2969 208.434 39.8359V46H204.859V32.8984H207.59L208.07 34.5742H208.27C208.621 33.9727 209.129 33.5039 209.793 33.168C210.457 32.8242 211.219 32.6523 212.078 32.6523C214.039 32.6523 215.367 33.293 216.062 34.5742H216.379C216.73 33.9648 217.246 33.4922 217.926 33.1562C218.613 32.8203 219.387 32.6523 220.246 32.6523C221.73 32.6523 222.852 33.0352 223.609 33.8008C224.375 34.5586 224.758 35.7773 224.758 37.457V46H221.172V38.3477C221.172 37.4023 221.012 36.6953 220.691 36.2266C220.379 35.75 219.883 35.5117 219.203 35.5117C218.328 35.5117 217.672 35.8242 217.234 36.4492C216.805 37.0742 216.59 38.0664 216.59 39.4258V46ZM236.758 46L236.066 44.2188H235.973C235.371 44.9766 234.75 45.5039 234.109 45.8008C233.477 46.0898 232.648 46.2344 231.625 46.2344C230.367 46.2344 229.375 45.875 228.648 45.1562C227.93 44.4375 227.57 43.4141 227.57 42.0859C227.57 40.6953 228.055 39.6719 229.023 39.0156C230 38.3516 231.469 37.9844 233.43 37.9141L235.703 37.8438V37.2695C235.703 35.9414 235.023 35.2773 233.664 35.2773C232.617 35.2773 231.387 35.5938 229.973 36.2266L228.789 33.8125C230.297 33.0234 231.969 32.6289 233.805 32.6289C235.562 32.6289 236.91 33.0117 237.848 33.7773C238.785 34.543 239.254 35.707 239.254 37.2695V46H236.758ZM235.703 39.9297L234.32 39.9766C233.281 40.0078 232.508 40.1953 232 40.5391C231.492 40.8828 231.238 41.4062 231.238 42.1094C231.238 43.1172 231.816 43.6211 232.973 43.6211C233.801 43.6211 234.461 43.3828 234.953 42.9062C235.453 42.4297 235.703 41.7969 235.703 41.0078V39.9297Z" fill="white"/>
</g>
<defs>
<filter id="filter0_d_663_661" x="0" y="0" width="392" height="532" filterUnits="userSpaceOnUse" color-interpolation-filters="sRGB">
<feFlood flood-opacity="0" result="BackgroundImageFix"/>
<feColorMatrix in="SourceAlpha" type="matrix" values="0 0 0 0 0 0 0 0 0 0 0 0 0 0 0 0 0 0 127 0" result="hardAlpha"/>
<feOffset dy="4"/>
<feGaussianBlur stdDeviation="5"/>
<feComposite in2="hardAlpha" operator="out"/>
<feColorMatrix type="matrix" values="0 0 0 0 0.2 0 0 0 0 0.2 0 0 0 0 0.2 0 0 0 0.2 0"/>
<feBlend mode="normal" in2="BackgroundImageFix" result="effect1_dropShadow_663_661"/>
<feBlend mode="normal" in="SourceGraphic" in2="effect1_dropShadow_663_661" result="shape"/>
</filter>
</defs>
</svg>
