<svg width="372" height="512" viewBox="0 0 372 512" fill="none" xmlns="http://www.w3.org/2000/svg">
<rect x="1" y="211" width="370" height="50" fill="white" stroke="#F5F5F5" stroke-width="2"/>
<path d="M134.949 241.884V243H128.847V241.884H131.403V234.18C131.271 234.36 131.031 234.564 130.683 234.792C130.335 235.02 129.957 235.218 129.549 235.386C129.141 235.542 128.781 235.62 128.469 235.62V234.432C128.745 234.432 129.045 234.354 129.369 234.198C129.705 234.042 130.017 233.862 130.305 233.658C130.605 233.442 130.857 233.244 131.061 233.064C131.265 232.884 131.379 232.77 131.403 232.722H132.663V241.884H134.949ZM146.66 243.09C145.796 243.09 144.998 242.91 144.266 242.55C143.546 242.178 142.916 241.68 142.376 241.056C141.836 240.432 141.416 239.736 141.116 238.968C140.828 238.188 140.684 237.396 140.684 236.592C140.684 235.74 140.828 234.93 141.116 234.162C141.416 233.382 141.83 232.692 142.358 232.092C142.886 231.48 143.51 231 144.23 230.652C144.95 230.304 145.736 230.13 146.588 230.13C147.848 230.13 148.874 230.388 149.666 230.904C150.458 231.42 151.058 232.092 151.466 232.92L150.494 233.568C150.086 232.776 149.54 232.194 148.856 231.822C148.172 231.45 147.41 231.264 146.57 231.264C145.862 231.264 145.22 231.414 144.644 231.714C144.08 232.014 143.594 232.416 143.186 232.92C142.79 233.424 142.484 233.994 142.268 234.63C142.052 235.266 141.944 235.926 141.944 236.61C141.944 237.33 142.064 238.014 142.304 238.662C142.544 239.298 142.88 239.868 143.312 240.372C143.756 240.864 144.266 241.254 144.842 241.542C145.43 241.818 146.066 241.956 146.75 241.956C147.482 241.956 148.178 241.782 148.838 241.434C149.51 241.086 150.152 240.546 150.764 239.814V237.69H147.92V236.718H151.826V243H150.764V241.128C149.588 242.436 148.22 243.09 146.66 243.09ZM158.753 243.18C158.021 243.18 157.343 242.994 156.719 242.622C156.095 242.238 155.609 241.758 155.261 241.182V243H154.163V229.86H155.387V235.584C155.807 234.948 156.311 234.438 156.899 234.054C157.487 233.658 158.171 233.46 158.951 233.46C159.611 233.46 160.199 233.598 160.715 233.874C161.243 234.15 161.693 234.522 162.064 234.99C162.437 235.446 162.719 235.968 162.911 236.556C163.103 237.132 163.199 237.726 163.199 238.338C163.199 239.214 163.001 240.018 162.605 240.75C162.221 241.482 161.693 242.07 161.021 242.514C160.349 242.958 159.593 243.18 158.753 243.18ZM158.465 242.1C159.149 242.1 159.749 241.92 160.265 241.56C160.793 241.2 161.207 240.738 161.507 240.174C161.807 239.598 161.957 238.986 161.957 238.338C161.957 237.678 161.813 237.06 161.525 236.484C161.249 235.908 160.859 235.44 160.355 235.08C159.851 234.72 159.269 234.54 158.609 234.54C157.877 234.54 157.229 234.774 156.665 235.242C156.113 235.71 155.687 236.256 155.387 236.88V239.796C155.447 240.228 155.645 240.618 155.981 240.966C156.317 241.314 156.713 241.59 157.169 241.794C157.625 241.998 158.057 242.1 158.465 242.1ZM175.26 243.09C174.36 243.09 173.544 242.91 172.812 242.55C172.08 242.178 171.45 241.686 170.922 241.074C170.394 240.462 169.986 239.772 169.698 239.004C169.41 238.224 169.266 237.426 169.266 236.61C169.266 235.758 169.416 234.948 169.716 234.18C170.016 233.4 170.436 232.71 170.976 232.11C171.528 231.498 172.17 231.018 172.902 230.67C173.634 230.31 174.426 230.13 175.278 230.13C176.166 230.13 176.976 230.316 177.708 230.688C178.44 231.06 179.07 231.558 179.598 232.182C180.138 232.806 180.546 233.502 180.822 234.27C181.11 235.038 181.254 235.824 181.254 236.628C181.254 237.48 181.104 238.296 180.804 239.076C180.504 239.844 180.084 240.534 179.544 241.146C179.004 241.746 178.368 242.22 177.636 242.568C176.904 242.916 176.112 243.09 175.26 243.09ZM170.526 236.61C170.526 237.306 170.64 237.972 170.868 238.608C171.096 239.244 171.42 239.814 171.84 240.318C172.26 240.822 172.758 241.224 173.334 241.524C173.922 241.812 174.564 241.956 175.26 241.956C175.992 241.956 176.646 241.806 177.222 241.506C177.81 241.194 178.308 240.78 178.716 240.264C179.136 239.748 179.454 239.178 179.67 238.554C179.886 237.918 179.994 237.27 179.994 236.61C179.994 235.914 179.88 235.248 179.652 234.612C179.424 233.976 179.094 233.406 178.662 232.902C178.242 232.398 177.744 232.002 177.168 231.714C176.592 231.426 175.956 231.282 175.26 231.282C174.54 231.282 173.886 231.432 173.298 231.732C172.722 232.032 172.224 232.44 171.804 232.956C171.396 233.46 171.078 234.03 170.85 234.666C170.634 235.302 170.526 235.95 170.526 236.61ZM183.827 243V234.594H182.531V233.622H183.827V233.37C183.827 232.218 184.073 231.318 184.565 230.67C185.069 230.01 185.741 229.68 186.581 229.68C186.941 229.68 187.295 229.734 187.643 229.842C188.003 229.95 188.309 230.094 188.561 230.274L188.183 231.156C187.823 230.88 187.367 230.742 186.815 230.742C186.251 230.742 185.813 230.964 185.501 231.408C185.201 231.852 185.051 232.494 185.051 233.334V233.622H187.643V234.594H185.051V243H183.827ZM201.224 232.614C200.864 232.218 200.384 231.894 199.784 231.642C199.184 231.378 198.5 231.246 197.732 231.246C196.604 231.246 195.782 231.462 195.266 231.894C194.75 232.314 194.492 232.89 194.492 233.622C194.492 234.126 194.618 234.522 194.87 234.81C195.122 235.098 195.506 235.338 196.022 235.53C196.55 235.71 197.222 235.89 198.038 236.07C198.95 236.262 199.736 236.49 200.396 236.754C201.056 237.018 201.566 237.378 201.926 237.834C202.286 238.278 202.466 238.884 202.466 239.652C202.466 240.432 202.268 241.08 201.872 241.596C201.476 242.112 200.93 242.496 200.234 242.748C199.538 242.988 198.746 243.108 197.858 243.108C195.866 243.108 194.156 242.49 192.728 241.254L193.358 240.228C193.814 240.708 194.438 241.122 195.23 241.47C196.034 241.818 196.922 241.992 197.894 241.992C198.902 241.992 199.694 241.806 200.27 241.434C200.846 241.062 201.134 240.51 201.134 239.778C201.134 239.25 200.99 238.83 200.702 238.518C200.414 238.194 199.982 237.93 199.406 237.726C198.83 237.522 198.122 237.324 197.282 237.132C196.394 236.928 195.644 236.7 195.032 236.448C194.432 236.196 193.976 235.866 193.664 235.458C193.352 235.05 193.196 234.498 193.196 233.802C193.196 233.01 193.388 232.344 193.772 231.804C194.168 231.252 194.708 230.838 195.392 230.562C196.076 230.274 196.862 230.13 197.75 230.13C198.59 230.13 199.346 230.262 200.018 230.526C200.69 230.778 201.296 231.138 201.836 231.606L201.224 232.614ZM209.224 243.18C208.444 243.18 207.742 242.976 207.118 242.568C206.506 242.16 206.02 241.656 205.66 241.056V246.834H204.436V233.622H205.534V235.44C205.906 234.852 206.398 234.378 207.01 234.018C207.634 233.646 208.306 233.46 209.026 233.46C209.674 233.46 210.268 233.598 210.808 233.874C211.348 234.138 211.816 234.498 212.212 234.954C212.62 235.41 212.932 235.932 213.148 236.52C213.364 237.096 213.472 237.696 213.472 238.32C213.472 239.196 213.292 240.006 212.932 240.75C212.584 241.482 212.086 242.07 211.438 242.514C210.802 242.958 210.064 243.18 209.224 243.18ZM208.882 242.1C209.566 242.1 210.154 241.92 210.646 241.56C211.15 241.188 211.54 240.714 211.816 240.138C212.092 239.562 212.23 238.956 212.23 238.32C212.23 237.648 212.074 237.024 211.762 236.448C211.45 235.872 211.03 235.41 210.502 235.062C209.986 234.714 209.398 234.54 208.738 234.54C208.33 234.54 207.898 234.648 207.442 234.864C206.998 235.068 206.602 235.35 206.254 235.71C205.918 236.058 205.72 236.442 205.66 236.862V239.742C205.936 240.402 206.368 240.96 206.956 241.416C207.544 241.872 208.186 242.1 208.882 242.1ZM214.789 240.3C214.789 239.724 214.957 239.226 215.293 238.806C215.629 238.374 216.091 238.038 216.679 237.798C217.279 237.558 217.969 237.438 218.749 237.438C219.205 237.438 219.679 237.48 220.171 237.564C220.663 237.636 221.101 237.738 221.485 237.87V237.078C221.485 236.286 221.251 235.656 220.783 235.188C220.315 234.72 219.667 234.486 218.839 234.486C218.347 234.486 217.855 234.582 217.363 234.774C216.871 234.954 216.361 235.224 215.833 235.584L215.365 234.72C215.977 234.3 216.577 233.988 217.165 233.784C217.753 233.568 218.353 233.46 218.965 233.46C220.117 233.46 221.029 233.79 221.701 234.45C222.373 235.11 222.709 236.022 222.709 237.186V241.524C222.709 241.848 222.859 242.016 223.159 242.028V243C222.895 243.036 222.709 243.048 222.601 243.036C222.301 243.024 222.073 242.928 221.917 242.748C221.761 242.568 221.677 242.376 221.665 242.172L221.647 241.488C221.227 242.028 220.681 242.448 220.009 242.748C219.337 243.036 218.653 243.18 217.957 243.18C217.345 243.18 216.799 243.054 216.319 242.802C215.839 242.538 215.461 242.19 215.185 241.758C214.921 241.314 214.789 240.828 214.789 240.3ZM221.071 241.02C221.347 240.696 221.485 240.396 221.485 240.12V238.752C220.657 238.428 219.793 238.266 218.893 238.266C218.017 238.266 217.309 238.44 216.769 238.788C216.229 239.136 215.959 239.61 215.959 240.21C215.959 240.726 216.157 241.194 216.553 241.614C216.961 242.034 217.525 242.244 218.245 242.244C218.833 242.244 219.379 242.13 219.883 241.902C220.399 241.674 220.795 241.38 221.071 241.02ZM229.422 243.18C228.51 243.18 227.7 242.958 226.992 242.514C226.284 242.058 225.726 241.464 225.318 240.732C224.91 239.988 224.706 239.172 224.706 238.284C224.706 237.396 224.904 236.592 225.3 235.872C225.696 235.14 226.248 234.558 226.956 234.126C227.664 233.682 228.48 233.46 229.404 233.46C230.28 233.46 231.048 233.664 231.708 234.072C232.38 234.468 232.884 235.008 233.22 235.692L232.032 236.07C231.768 235.59 231.396 235.218 230.916 234.954C230.448 234.678 229.926 234.54 229.35 234.54C228.714 234.54 228.138 234.702 227.622 235.026C227.118 235.35 226.71 235.8 226.398 236.376C226.098 236.94 225.948 237.576 225.948 238.284C225.948 238.992 226.104 239.634 226.416 240.21C226.728 240.786 227.142 241.248 227.658 241.596C228.174 241.932 228.744 242.1 229.368 242.1C229.776 242.1 230.172 242.028 230.556 241.884C230.94 241.74 231.27 241.548 231.546 241.308C231.822 241.056 232.008 240.786 232.104 240.498L233.31 240.858C233.142 241.302 232.866 241.704 232.482 242.064C232.098 242.412 231.642 242.688 231.114 242.892C230.586 243.084 230.022 243.18 229.422 243.18ZM239.195 243.18C238.295 243.18 237.491 242.958 236.783 242.514C236.075 242.07 235.517 241.476 235.109 240.732C234.701 239.988 234.497 239.172 234.497 238.284C234.497 237.408 234.695 236.604 235.091 235.872C235.499 235.14 236.057 234.558 236.765 234.126C237.473 233.682 238.277 233.46 239.177 233.46C240.101 233.46 240.911 233.682 241.607 234.126C242.303 234.57 242.843 235.158 243.227 235.89C243.623 236.61 243.821 237.402 243.821 238.266C243.821 238.458 243.815 238.62 243.803 238.752H235.775C235.835 239.424 236.027 240.024 236.351 240.552C236.675 241.068 237.089 241.482 237.593 241.794C238.097 242.094 238.649 242.244 239.249 242.244C239.861 242.244 240.437 242.088 240.977 241.776C241.517 241.464 241.901 241.056 242.129 240.552L243.191 240.84C242.999 241.296 242.699 241.704 242.291 242.064C241.895 242.412 241.433 242.688 240.905 242.892C240.377 243.084 239.807 243.18 239.195 243.18ZM235.739 237.87H242.669C242.621 237.198 242.435 236.604 242.111 236.088C241.787 235.56 241.373 235.152 240.869 234.864C240.365 234.564 239.807 234.414 239.195 234.414C238.583 234.414 238.025 234.564 237.521 234.864C237.017 235.152 236.603 235.56 236.279 236.088C235.967 236.604 235.787 237.198 235.739 237.87Z" fill="#86878B"/>
<rect x="1" y="261" width="370" height="50" fill="white" stroke="#F5F5F5" stroke-width="2"/>
<path d="M134.949 291.884V293H128.847V291.884H131.403V284.18C131.271 284.36 131.031 284.564 130.683 284.792C130.335 285.02 129.957 285.218 129.549 285.386C129.141 285.542 128.781 285.62 128.469 285.62V284.432C128.745 284.432 129.045 284.354 129.369 284.198C129.705 284.042 130.017 283.862 130.305 283.658C130.605 283.442 130.857 283.244 131.061 283.064C131.265 282.884 131.379 282.77 131.403 282.722H132.663V291.884H134.949ZM146.66 293.09C145.796 293.09 144.998 292.91 144.266 292.55C143.546 292.178 142.916 291.68 142.376 291.056C141.836 290.432 141.416 289.736 141.116 288.968C140.828 288.188 140.684 287.396 140.684 286.592C140.684 285.74 140.828 284.93 141.116 284.162C141.416 283.382 141.83 282.692 142.358 282.092C142.886 281.48 143.51 281 144.23 280.652C144.95 280.304 145.736 280.13 146.588 280.13C147.848 280.13 148.874 280.388 149.666 280.904C150.458 281.42 151.058 282.092 151.466 282.92L150.494 283.568C150.086 282.776 149.54 282.194 148.856 281.822C148.172 281.45 147.41 281.264 146.57 281.264C145.862 281.264 145.22 281.414 144.644 281.714C144.08 282.014 143.594 282.416 143.186 282.92C142.79 283.424 142.484 283.994 142.268 284.63C142.052 285.266 141.944 285.926 141.944 286.61C141.944 287.33 142.064 288.014 142.304 288.662C142.544 289.298 142.88 289.868 143.312 290.372C143.756 290.864 144.266 291.254 144.842 291.542C145.43 291.818 146.066 291.956 146.75 291.956C147.482 291.956 148.178 291.782 148.838 291.434C149.51 291.086 150.152 290.546 150.764 289.814V287.69H147.92V286.718H151.826V293H150.764V291.128C149.588 292.436 148.22 293.09 146.66 293.09ZM158.753 293.18C158.021 293.18 157.343 292.994 156.719 292.622C156.095 292.238 155.609 291.758 155.261 291.182V293H154.163V279.86H155.387V285.584C155.807 284.948 156.311 284.438 156.899 284.054C157.487 283.658 158.171 283.46 158.951 283.46C159.611 283.46 160.199 283.598 160.715 283.874C161.243 284.15 161.693 284.522 162.064 284.99C162.437 285.446 162.719 285.968 162.911 286.556C163.103 287.132 163.199 287.726 163.199 288.338C163.199 289.214 163.001 290.018 162.605 290.75C162.221 291.482 161.693 292.07 161.021 292.514C160.349 292.958 159.593 293.18 158.753 293.18ZM158.465 292.1C159.149 292.1 159.749 291.92 160.265 291.56C160.793 291.2 161.207 290.738 161.507 290.174C161.807 289.598 161.957 288.986 161.957 288.338C161.957 287.678 161.813 287.06 161.525 286.484C161.249 285.908 160.859 285.44 160.355 285.08C159.851 284.72 159.269 284.54 158.609 284.54C157.877 284.54 157.229 284.774 156.665 285.242C156.113 285.71 155.687 286.256 155.387 286.88V289.796C155.447 290.228 155.645 290.618 155.981 290.966C156.317 291.314 156.713 291.59 157.169 291.794C157.625 291.998 158.057 292.1 158.465 292.1ZM175.26 293.09C174.36 293.09 173.544 292.91 172.812 292.55C172.08 292.178 171.45 291.686 170.922 291.074C170.394 290.462 169.986 289.772 169.698 289.004C169.41 288.224 169.266 287.426 169.266 286.61C169.266 285.758 169.416 284.948 169.716 284.18C170.016 283.4 170.436 282.71 170.976 282.11C171.528 281.498 172.17 281.018 172.902 280.67C173.634 280.31 174.426 280.13 175.278 280.13C176.166 280.13 176.976 280.316 177.708 280.688C178.44 281.06 179.07 281.558 179.598 282.182C180.138 282.806 180.546 283.502 180.822 284.27C181.11 285.038 181.254 285.824 181.254 286.628C181.254 287.48 181.104 288.296 180.804 289.076C180.504 289.844 180.084 290.534 179.544 291.146C179.004 291.746 178.368 292.22 177.636 292.568C176.904 292.916 176.112 293.09 175.26 293.09ZM170.526 286.61C170.526 287.306 170.64 287.972 170.868 288.608C171.096 289.244 171.42 289.814 171.84 290.318C172.26 290.822 172.758 291.224 173.334 291.524C173.922 291.812 174.564 291.956 175.26 291.956C175.992 291.956 176.646 291.806 177.222 291.506C177.81 291.194 178.308 290.78 178.716 290.264C179.136 289.748 179.454 289.178 179.67 288.554C179.886 287.918 179.994 287.27 179.994 286.61C179.994 285.914 179.88 285.248 179.652 284.612C179.424 283.976 179.094 283.406 178.662 282.902C178.242 282.398 177.744 282.002 177.168 281.714C176.592 281.426 175.956 281.282 175.26 281.282C174.54 281.282 173.886 281.432 173.298 281.732C172.722 282.032 172.224 282.44 171.804 282.956C171.396 283.46 171.078 284.03 170.85 284.666C170.634 285.302 170.526 285.95 170.526 286.61ZM183.827 293V284.594H182.531V283.622H183.827V283.37C183.827 282.218 184.073 281.318 184.565 280.67C185.069 280.01 185.741 279.68 186.581 279.68C186.941 279.68 187.295 279.734 187.643 279.842C188.003 279.95 188.309 280.094 188.561 280.274L188.183 281.156C187.823 280.88 187.367 280.742 186.815 280.742C186.251 280.742 185.813 280.964 185.501 281.408C185.201 281.852 185.051 282.494 185.051 283.334V283.622H187.643V284.594H185.051V293H183.827ZM201.224 282.614C200.864 282.218 200.384 281.894 199.784 281.642C199.184 281.378 198.5 281.246 197.732 281.246C196.604 281.246 195.782 281.462 195.266 281.894C194.75 282.314 194.492 282.89 194.492 283.622C194.492 284.126 194.618 284.522 194.87 284.81C195.122 285.098 195.506 285.338 196.022 285.53C196.55 285.71 197.222 285.89 198.038 286.07C198.95 286.262 199.736 286.49 200.396 286.754C201.056 287.018 201.566 287.378 201.926 287.834C202.286 288.278 202.466 288.884 202.466 289.652C202.466 290.432 202.268 291.08 201.872 291.596C201.476 292.112 200.93 292.496 200.234 292.748C199.538 292.988 198.746 293.108 197.858 293.108C195.866 293.108 194.156 292.49 192.728 291.254L193.358 290.228C193.814 290.708 194.438 291.122 195.23 291.47C196.034 291.818 196.922 291.992 197.894 291.992C198.902 291.992 199.694 291.806 200.27 291.434C200.846 291.062 201.134 290.51 201.134 289.778C201.134 289.25 200.99 288.83 200.702 288.518C200.414 288.194 199.982 287.93 199.406 287.726C198.83 287.522 198.122 287.324 197.282 287.132C196.394 286.928 195.644 286.7 195.032 286.448C194.432 286.196 193.976 285.866 193.664 285.458C193.352 285.05 193.196 284.498 193.196 283.802C193.196 283.01 193.388 282.344 193.772 281.804C194.168 281.252 194.708 280.838 195.392 280.562C196.076 280.274 196.862 280.13 197.75 280.13C198.59 280.13 199.346 280.262 200.018 280.526C200.69 280.778 201.296 281.138 201.836 281.606L201.224 282.614ZM209.224 293.18C208.444 293.18 207.742 292.976 207.118 292.568C206.506 292.16 206.02 291.656 205.66 291.056V296.834H204.436V283.622H205.534V285.44C205.906 284.852 206.398 284.378 207.01 284.018C207.634 283.646 208.306 283.46 209.026 283.46C209.674 283.46 210.268 283.598 210.808 283.874C211.348 284.138 211.816 284.498 212.212 284.954C212.62 285.41 212.932 285.932 213.148 286.52C213.364 287.096 213.472 287.696 213.472 288.32C213.472 289.196 213.292 290.006 212.932 290.75C212.584 291.482 212.086 292.07 211.438 292.514C210.802 292.958 210.064 293.18 209.224 293.18ZM208.882 292.1C209.566 292.1 210.154 291.92 210.646 291.56C211.15 291.188 211.54 290.714 211.816 290.138C212.092 289.562 212.23 288.956 212.23 288.32C212.23 287.648 212.074 287.024 211.762 286.448C211.45 285.872 211.03 285.41 210.502 285.062C209.986 284.714 209.398 284.54 208.738 284.54C208.33 284.54 207.898 284.648 207.442 284.864C206.998 285.068 206.602 285.35 206.254 285.71C205.918 286.058 205.72 286.442 205.66 286.862V289.742C205.936 290.402 206.368 290.96 206.956 291.416C207.544 291.872 208.186 292.1 208.882 292.1ZM214.789 290.3C214.789 289.724 214.957 289.226 215.293 288.806C215.629 288.374 216.091 288.038 216.679 287.798C217.279 287.558 217.969 287.438 218.749 287.438C219.205 287.438 219.679 287.48 220.171 287.564C220.663 287.636 221.101 287.738 221.485 287.87V287.078C221.485 286.286 221.251 285.656 220.783 285.188C220.315 284.72 219.667 284.486 218.839 284.486C218.347 284.486 217.855 284.582 217.363 284.774C216.871 284.954 216.361 285.224 215.833 285.584L215.365 284.72C215.977 284.3 216.577 283.988 217.165 283.784C217.753 283.568 218.353 283.46 218.965 283.46C220.117 283.46 221.029 283.79 221.701 284.45C222.373 285.11 222.709 286.022 222.709 287.186V291.524C222.709 291.848 222.859 292.016 223.159 292.028V293C222.895 293.036 222.709 293.048 222.601 293.036C222.301 293.024 222.073 292.928 221.917 292.748C221.761 292.568 221.677 292.376 221.665 292.172L221.647 291.488C221.227 292.028 220.681 292.448 220.009 292.748C219.337 293.036 218.653 293.18 217.957 293.18C217.345 293.18 216.799 293.054 216.319 292.802C215.839 292.538 215.461 292.19 215.185 291.758C214.921 291.314 214.789 290.828 214.789 290.3ZM221.071 291.02C221.347 290.696 221.485 290.396 221.485 290.12V288.752C220.657 288.428 219.793 288.266 218.893 288.266C218.017 288.266 217.309 288.44 216.769 288.788C216.229 289.136 215.959 289.61 215.959 290.21C215.959 290.726 216.157 291.194 216.553 291.614C216.961 292.034 217.525 292.244 218.245 292.244C218.833 292.244 219.379 292.13 219.883 291.902C220.399 291.674 220.795 291.38 221.071 291.02ZM229.422 293.18C228.51 293.18 227.7 292.958 226.992 292.514C226.284 292.058 225.726 291.464 225.318 290.732C224.91 289.988 224.706 289.172 224.706 288.284C224.706 287.396 224.904 286.592 225.3 285.872C225.696 285.14 226.248 284.558 226.956 284.126C227.664 283.682 228.48 283.46 229.404 283.46C230.28 283.46 231.048 283.664 231.708 284.072C232.38 284.468 232.884 285.008 233.22 285.692L232.032 286.07C231.768 285.59 231.396 285.218 230.916 284.954C230.448 284.678 229.926 284.54 229.35 284.54C228.714 284.54 228.138 284.702 227.622 285.026C227.118 285.35 226.71 285.8 226.398 286.376C226.098 286.94 225.948 287.576 225.948 288.284C225.948 288.992 226.104 289.634 226.416 290.21C226.728 290.786 227.142 291.248 227.658 291.596C228.174 291.932 228.744 292.1 229.368 292.1C229.776 292.1 230.172 292.028 230.556 291.884C230.94 291.74 231.27 291.548 231.546 291.308C231.822 291.056 232.008 290.786 232.104 290.498L233.31 290.858C233.142 291.302 232.866 291.704 232.482 292.064C232.098 292.412 231.642 292.688 231.114 292.892C230.586 293.084 230.022 293.18 229.422 293.18ZM239.195 293.18C238.295 293.18 237.491 292.958 236.783 292.514C236.075 292.07 235.517 291.476 235.109 290.732C234.701 289.988 234.497 289.172 234.497 288.284C234.497 287.408 234.695 286.604 235.091 285.872C235.499 285.14 236.057 284.558 236.765 284.126C237.473 283.682 238.277 283.46 239.177 283.46C240.101 283.46 240.911 283.682 241.607 284.126C242.303 284.57 242.843 285.158 243.227 285.89C243.623 286.61 243.821 287.402 243.821 288.266C243.821 288.458 243.815 288.62 243.803 288.752H235.775C235.835 289.424 236.027 290.024 236.351 290.552C236.675 291.068 237.089 291.482 237.593 291.794C238.097 292.094 238.649 292.244 239.249 292.244C239.861 292.244 240.437 292.088 240.977 291.776C241.517 291.464 241.901 291.056 242.129 290.552L243.191 290.84C242.999 291.296 242.699 291.704 242.291 292.064C241.895 292.412 241.433 292.688 240.905 292.892C240.377 293.084 239.807 293.18 239.195 293.18ZM235.739 287.87H242.669C242.621 287.198 242.435 286.604 242.111 286.088C241.787 285.56 241.373 285.152 240.869 284.864C240.365 284.564 239.807 284.414 239.195 284.414C238.583 284.414 238.025 284.564 237.521 284.864C237.017 285.152 236.603 285.56 236.279 286.088C235.967 286.604 235.787 287.198 235.739 287.87Z" fill="#86878B"/>
<rect x="1" y="311" width="370" height="50" fill="white" stroke="#F5F5F5" stroke-width="2"/>
<path d="M134.949 341.884V343H128.847V341.884H131.403V334.18C131.271 334.36 131.031 334.564 130.683 334.792C130.335 335.02 129.957 335.218 129.549 335.386C129.141 335.542 128.781 335.62 128.469 335.62V334.432C128.745 334.432 129.045 334.354 129.369 334.198C129.705 334.042 130.017 333.862 130.305 333.658C130.605 333.442 130.857 333.244 131.061 333.064C131.265 332.884 131.379 332.77 131.403 332.722H132.663V341.884H134.949ZM146.66 343.09C145.796 343.09 144.998 342.91 144.266 342.55C143.546 342.178 142.916 341.68 142.376 341.056C141.836 340.432 141.416 339.736 141.116 338.968C140.828 338.188 140.684 337.396 140.684 336.592C140.684 335.74 140.828 334.93 141.116 334.162C141.416 333.382 141.83 332.692 142.358 332.092C142.886 331.48 143.51 331 144.23 330.652C144.95 330.304 145.736 330.13 146.588 330.13C147.848 330.13 148.874 330.388 149.666 330.904C150.458 331.42 151.058 332.092 151.466 332.92L150.494 333.568C150.086 332.776 149.54 332.194 148.856 331.822C148.172 331.45 147.41 331.264 146.57 331.264C145.862 331.264 145.22 331.414 144.644 331.714C144.08 332.014 143.594 332.416 143.186 332.92C142.79 333.424 142.484 333.994 142.268 334.63C142.052 335.266 141.944 335.926 141.944 336.61C141.944 337.33 142.064 338.014 142.304 338.662C142.544 339.298 142.88 339.868 143.312 340.372C143.756 340.864 144.266 341.254 144.842 341.542C145.43 341.818 146.066 341.956 146.75 341.956C147.482 341.956 148.178 341.782 148.838 341.434C149.51 341.086 150.152 340.546 150.764 339.814V337.69H147.92V336.718H151.826V343H150.764V341.128C149.588 342.436 148.22 343.09 146.66 343.09ZM158.753 343.18C158.021 343.18 157.343 342.994 156.719 342.622C156.095 342.238 155.609 341.758 155.261 341.182V343H154.163V329.86H155.387V335.584C155.807 334.948 156.311 334.438 156.899 334.054C157.487 333.658 158.171 333.46 158.951 333.46C159.611 333.46 160.199 333.598 160.715 333.874C161.243 334.15 161.693 334.522 162.064 334.99C162.437 335.446 162.719 335.968 162.911 336.556C163.103 337.132 163.199 337.726 163.199 338.338C163.199 339.214 163.001 340.018 162.605 340.75C162.221 341.482 161.693 342.07 161.021 342.514C160.349 342.958 159.593 343.18 158.753 343.18ZM158.465 342.1C159.149 342.1 159.749 341.92 160.265 341.56C160.793 341.2 161.207 340.738 161.507 340.174C161.807 339.598 161.957 338.986 161.957 338.338C161.957 337.678 161.813 337.06 161.525 336.484C161.249 335.908 160.859 335.44 160.355 335.08C159.851 334.72 159.269 334.54 158.609 334.54C157.877 334.54 157.229 334.774 156.665 335.242C156.113 335.71 155.687 336.256 155.387 336.88V339.796C155.447 340.228 155.645 340.618 155.981 340.966C156.317 341.314 156.713 341.59 157.169 341.794C157.625 341.998 158.057 342.1 158.465 342.1ZM175.26 343.09C174.36 343.09 173.544 342.91 172.812 342.55C172.08 342.178 171.45 341.686 170.922 341.074C170.394 340.462 169.986 339.772 169.698 339.004C169.41 338.224 169.266 337.426 169.266 336.61C169.266 335.758 169.416 334.948 169.716 334.18C170.016 333.4 170.436 332.71 170.976 332.11C171.528 331.498 172.17 331.018 172.902 330.67C173.634 330.31 174.426 330.13 175.278 330.13C176.166 330.13 176.976 330.316 177.708 330.688C178.44 331.06 179.07 331.558 179.598 332.182C180.138 332.806 180.546 333.502 180.822 334.27C181.11 335.038 181.254 335.824 181.254 336.628C181.254 337.48 181.104 338.296 180.804 339.076C180.504 339.844 180.084 340.534 179.544 341.146C179.004 341.746 178.368 342.22 177.636 342.568C176.904 342.916 176.112 343.09 175.26 343.09ZM170.526 336.61C170.526 337.306 170.64 337.972 170.868 338.608C171.096 339.244 171.42 339.814 171.84 340.318C172.26 340.822 172.758 341.224 173.334 341.524C173.922 341.812 174.564 341.956 175.26 341.956C175.992 341.956 176.646 341.806 177.222 341.506C177.81 341.194 178.308 340.78 178.716 340.264C179.136 339.748 179.454 339.178 179.67 338.554C179.886 337.918 179.994 337.27 179.994 336.61C179.994 335.914 179.88 335.248 179.652 334.612C179.424 333.976 179.094 333.406 178.662 332.902C178.242 332.398 177.744 332.002 177.168 331.714C176.592 331.426 175.956 331.282 175.26 331.282C174.54 331.282 173.886 331.432 173.298 331.732C172.722 332.032 172.224 332.44 171.804 332.956C171.396 333.46 171.078 334.03 170.85 334.666C170.634 335.302 170.526 335.95 170.526 336.61ZM183.827 343V334.594H182.531V333.622H183.827V333.37C183.827 332.218 184.073 331.318 184.565 330.67C185.069 330.01 185.741 329.68 186.581 329.68C186.941 329.68 187.295 329.734 187.643 329.842C188.003 329.95 188.309 330.094 188.561 330.274L188.183 331.156C187.823 330.88 187.367 330.742 186.815 330.742C186.251 330.742 185.813 330.964 185.501 331.408C185.201 331.852 185.051 332.494 185.051 333.334V333.622H187.643V334.594H185.051V343H183.827ZM201.224 332.614C200.864 332.218 200.384 331.894 199.784 331.642C199.184 331.378 198.5 331.246 197.732 331.246C196.604 331.246 195.782 331.462 195.266 331.894C194.75 332.314 194.492 332.89 194.492 333.622C194.492 334.126 194.618 334.522 194.87 334.81C195.122 335.098 195.506 335.338 196.022 335.53C196.55 335.71 197.222 335.89 198.038 336.07C198.95 336.262 199.736 336.49 200.396 336.754C201.056 337.018 201.566 337.378 201.926 337.834C202.286 338.278 202.466 338.884 202.466 339.652C202.466 340.432 202.268 341.08 201.872 341.596C201.476 342.112 200.93 342.496 200.234 342.748C199.538 342.988 198.746 343.108 197.858 343.108C195.866 343.108 194.156 342.49 192.728 341.254L193.358 340.228C193.814 340.708 194.438 341.122 195.23 341.47C196.034 341.818 196.922 341.992 197.894 341.992C198.902 341.992 199.694 341.806 200.27 341.434C200.846 341.062 201.134 340.51 201.134 339.778C201.134 339.25 200.99 338.83 200.702 338.518C200.414 338.194 199.982 337.93 199.406 337.726C198.83 337.522 198.122 337.324 197.282 337.132C196.394 336.928 195.644 336.7 195.032 336.448C194.432 336.196 193.976 335.866 193.664 335.458C193.352 335.05 193.196 334.498 193.196 333.802C193.196 333.01 193.388 332.344 193.772 331.804C194.168 331.252 194.708 330.838 195.392 330.562C196.076 330.274 196.862 330.13 197.75 330.13C198.59 330.13 199.346 330.262 200.018 330.526C200.69 330.778 201.296 331.138 201.836 331.606L201.224 332.614ZM209.224 343.18C208.444 343.18 207.742 342.976 207.118 342.568C206.506 342.16 206.02 341.656 205.66 341.056V346.834H204.436V333.622H205.534V335.44C205.906 334.852 206.398 334.378 207.01 334.018C207.634 333.646 208.306 333.46 209.026 333.46C209.674 333.46 210.268 333.598 210.808 333.874C211.348 334.138 211.816 334.498 212.212 334.954C212.62 335.41 212.932 335.932 213.148 336.52C213.364 337.096 213.472 337.696 213.472 338.32C213.472 339.196 213.292 340.006 212.932 340.75C212.584 341.482 212.086 342.07 211.438 342.514C210.802 342.958 210.064 343.18 209.224 343.18ZM208.882 342.1C209.566 342.1 210.154 341.92 210.646 341.56C211.15 341.188 211.54 340.714 211.816 340.138C212.092 339.562 212.23 338.956 212.23 338.32C212.23 337.648 212.074 337.024 211.762 336.448C211.45 335.872 211.03 335.41 210.502 335.062C209.986 334.714 209.398 334.54 208.738 334.54C208.33 334.54 207.898 334.648 207.442 334.864C206.998 335.068 206.602 335.35 206.254 335.71C205.918 336.058 205.72 336.442 205.66 336.862V339.742C205.936 340.402 206.368 340.96 206.956 341.416C207.544 341.872 208.186 342.1 208.882 342.1ZM214.789 340.3C214.789 339.724 214.957 339.226 215.293 338.806C215.629 338.374 216.091 338.038 216.679 337.798C217.279 337.558 217.969 337.438 218.749 337.438C219.205 337.438 219.679 337.48 220.171 337.564C220.663 337.636 221.101 337.738 221.485 337.87V337.078C221.485 336.286 221.251 335.656 220.783 335.188C220.315 334.72 219.667 334.486 218.839 334.486C218.347 334.486 217.855 334.582 217.363 334.774C216.871 334.954 216.361 335.224 215.833 335.584L215.365 334.72C215.977 334.3 216.577 333.988 217.165 333.784C217.753 333.568 218.353 333.46 218.965 333.46C220.117 333.46 221.029 333.79 221.701 334.45C222.373 335.11 222.709 336.022 222.709 337.186V341.524C222.709 341.848 222.859 342.016 223.159 342.028V343C222.895 343.036 222.709 343.048 222.601 343.036C222.301 343.024 222.073 342.928 221.917 342.748C221.761 342.568 221.677 342.376 221.665 342.172L221.647 341.488C221.227 342.028 220.681 342.448 220.009 342.748C219.337 343.036 218.653 343.18 217.957 343.18C217.345 343.18 216.799 343.054 216.319 342.802C215.839 342.538 215.461 342.19 215.185 341.758C214.921 341.314 214.789 340.828 214.789 340.3ZM221.071 341.02C221.347 340.696 221.485 340.396 221.485 340.12V338.752C220.657 338.428 219.793 338.266 218.893 338.266C218.017 338.266 217.309 338.44 216.769 338.788C216.229 339.136 215.959 339.61 215.959 340.21C215.959 340.726 216.157 341.194 216.553 341.614C216.961 342.034 217.525 342.244 218.245 342.244C218.833 342.244 219.379 342.13 219.883 341.902C220.399 341.674 220.795 341.38 221.071 341.02ZM229.422 343.18C228.51 343.18 227.7 342.958 226.992 342.514C226.284 342.058 225.726 341.464 225.318 340.732C224.91 339.988 224.706 339.172 224.706 338.284C224.706 337.396 224.904 336.592 225.3 335.872C225.696 335.14 226.248 334.558 226.956 334.126C227.664 333.682 228.48 333.46 229.404 333.46C230.28 333.46 231.048 333.664 231.708 334.072C232.38 334.468 232.884 335.008 233.22 335.692L232.032 336.07C231.768 335.59 231.396 335.218 230.916 334.954C230.448 334.678 229.926 334.54 229.35 334.54C228.714 334.54 228.138 334.702 227.622 335.026C227.118 335.35 226.71 335.8 226.398 336.376C226.098 336.94 225.948 337.576 225.948 338.284C225.948 338.992 226.104 339.634 226.416 340.21C226.728 340.786 227.142 341.248 227.658 341.596C228.174 341.932 228.744 342.1 229.368 342.1C229.776 342.1 230.172 342.028 230.556 341.884C230.94 341.74 231.27 341.548 231.546 341.308C231.822 341.056 232.008 340.786 232.104 340.498L233.31 340.858C233.142 341.302 232.866 341.704 232.482 342.064C232.098 342.412 231.642 342.688 231.114 342.892C230.586 343.084 230.022 343.18 229.422 343.18ZM239.195 343.18C238.295 343.18 237.491 342.958 236.783 342.514C236.075 342.07 235.517 341.476 235.109 340.732C234.701 339.988 234.497 339.172 234.497 338.284C234.497 337.408 234.695 336.604 235.091 335.872C235.499 335.14 236.057 334.558 236.765 334.126C237.473 333.682 238.277 333.46 239.177 333.46C240.101 333.46 240.911 333.682 241.607 334.126C242.303 334.57 242.843 335.158 243.227 335.89C243.623 336.61 243.821 337.402 243.821 338.266C243.821 338.458 243.815 338.62 243.803 338.752H235.775C235.835 339.424 236.027 340.024 236.351 340.552C236.675 341.068 237.089 341.482 237.593 341.794C238.097 342.094 238.649 342.244 239.249 342.244C239.861 342.244 240.437 342.088 240.977 341.776C241.517 341.464 241.901 341.056 242.129 340.552L243.191 340.84C242.999 341.296 242.699 341.704 242.291 342.064C241.895 342.412 241.433 342.688 240.905 342.892C240.377 343.084 239.807 343.18 239.195 343.18ZM235.739 337.87H242.669C242.621 337.198 242.435 336.604 242.111 336.088C241.787 335.56 241.373 335.152 240.869 334.864C240.365 334.564 239.807 334.414 239.195 334.414C238.583 334.414 238.025 334.564 237.521 334.864C237.017 335.152 236.603 335.56 236.279 336.088C235.967 336.604 235.787 337.198 235.739 337.87Z" fill="#86878B"/>
<rect x="1" y="361" width="370" height="50" fill="white" stroke="#F5F5F5" stroke-width="2"/>
<path d="M134.949 391.884V393H128.847V391.884H131.403V384.18C131.271 384.36 131.031 384.564 130.683 384.792C130.335 385.02 129.957 385.218 129.549 385.386C129.141 385.542 128.781 385.62 128.469 385.62V384.432C128.745 384.432 129.045 384.354 129.369 384.198C129.705 384.042 130.017 383.862 130.305 383.658C130.605 383.442 130.857 383.244 131.061 383.064C131.265 382.884 131.379 382.77 131.403 382.722H132.663V391.884H134.949ZM146.66 393.09C145.796 393.09 144.998 392.91 144.266 392.55C143.546 392.178 142.916 391.68 142.376 391.056C141.836 390.432 141.416 389.736 141.116 388.968C140.828 388.188 140.684 387.396 140.684 386.592C140.684 385.74 140.828 384.93 141.116 384.162C141.416 383.382 141.83 382.692 142.358 382.092C142.886 381.48 143.51 381 144.23 380.652C144.95 380.304 145.736 380.13 146.588 380.13C147.848 380.13 148.874 380.388 149.666 380.904C150.458 381.42 151.058 382.092 151.466 382.92L150.494 383.568C150.086 382.776 149.54 382.194 148.856 381.822C148.172 381.45 147.41 381.264 146.57 381.264C145.862 381.264 145.22 381.414 144.644 381.714C144.08 382.014 143.594 382.416 143.186 382.92C142.79 383.424 142.484 383.994 142.268 384.63C142.052 385.266 141.944 385.926 141.944 386.61C141.944 387.33 142.064 388.014 142.304 388.662C142.544 389.298 142.88 389.868 143.312 390.372C143.756 390.864 144.266 391.254 144.842 391.542C145.43 391.818 146.066 391.956 146.75 391.956C147.482 391.956 148.178 391.782 148.838 391.434C149.51 391.086 150.152 390.546 150.764 389.814V387.69H147.92V386.718H151.826V393H150.764V391.128C149.588 392.436 148.22 393.09 146.66 393.09ZM158.753 393.18C158.021 393.18 157.343 392.994 156.719 392.622C156.095 392.238 155.609 391.758 155.261 391.182V393H154.163V379.86H155.387V385.584C155.807 384.948 156.311 384.438 156.899 384.054C157.487 383.658 158.171 383.46 158.951 383.46C159.611 383.46 160.199 383.598 160.715 383.874C161.243 384.15 161.693 384.522 162.064 384.99C162.437 385.446 162.719 385.968 162.911 386.556C163.103 387.132 163.199 387.726 163.199 388.338C163.199 389.214 163.001 390.018 162.605 390.75C162.221 391.482 161.693 392.07 161.021 392.514C160.349 392.958 159.593 393.18 158.753 393.18ZM158.465 392.1C159.149 392.1 159.749 391.92 160.265 391.56C160.793 391.2 161.207 390.738 161.507 390.174C161.807 389.598 161.957 388.986 161.957 388.338C161.957 387.678 161.813 387.06 161.525 386.484C161.249 385.908 160.859 385.44 160.355 385.08C159.851 384.72 159.269 384.54 158.609 384.54C157.877 384.54 157.229 384.774 156.665 385.242C156.113 385.71 155.687 386.256 155.387 386.88V389.796C155.447 390.228 155.645 390.618 155.981 390.966C156.317 391.314 156.713 391.59 157.169 391.794C157.625 391.998 158.057 392.1 158.465 392.1ZM175.26 393.09C174.36 393.09 173.544 392.91 172.812 392.55C172.08 392.178 171.45 391.686 170.922 391.074C170.394 390.462 169.986 389.772 169.698 389.004C169.41 388.224 169.266 387.426 169.266 386.61C169.266 385.758 169.416 384.948 169.716 384.18C170.016 383.4 170.436 382.71 170.976 382.11C171.528 381.498 172.17 381.018 172.902 380.67C173.634 380.31 174.426 380.13 175.278 380.13C176.166 380.13 176.976 380.316 177.708 380.688C178.44 381.06 179.07 381.558 179.598 382.182C180.138 382.806 180.546 383.502 180.822 384.27C181.11 385.038 181.254 385.824 181.254 386.628C181.254 387.48 181.104 388.296 180.804 389.076C180.504 389.844 180.084 390.534 179.544 391.146C179.004 391.746 178.368 392.22 177.636 392.568C176.904 392.916 176.112 393.09 175.26 393.09ZM170.526 386.61C170.526 387.306 170.64 387.972 170.868 388.608C171.096 389.244 171.42 389.814 171.84 390.318C172.26 390.822 172.758 391.224 173.334 391.524C173.922 391.812 174.564 391.956 175.26 391.956C175.992 391.956 176.646 391.806 177.222 391.506C177.81 391.194 178.308 390.78 178.716 390.264C179.136 389.748 179.454 389.178 179.67 388.554C179.886 387.918 179.994 387.27 179.994 386.61C179.994 385.914 179.88 385.248 179.652 384.612C179.424 383.976 179.094 383.406 178.662 382.902C178.242 382.398 177.744 382.002 177.168 381.714C176.592 381.426 175.956 381.282 175.26 381.282C174.54 381.282 173.886 381.432 173.298 381.732C172.722 382.032 172.224 382.44 171.804 382.956C171.396 383.46 171.078 384.03 170.85 384.666C170.634 385.302 170.526 385.95 170.526 386.61ZM183.827 393V384.594H182.531V383.622H183.827V383.37C183.827 382.218 184.073 381.318 184.565 380.67C185.069 380.01 185.741 379.68 186.581 379.68C186.941 379.68 187.295 379.734 187.643 379.842C188.003 379.95 188.309 380.094 188.561 380.274L188.183 381.156C187.823 380.88 187.367 380.742 186.815 380.742C186.251 380.742 185.813 380.964 185.501 381.408C185.201 381.852 185.051 382.494 185.051 383.334V383.622H187.643V384.594H185.051V393H183.827ZM201.224 382.614C200.864 382.218 200.384 381.894 199.784 381.642C199.184 381.378 198.5 381.246 197.732 381.246C196.604 381.246 195.782 381.462 195.266 381.894C194.75 382.314 194.492 382.89 194.492 383.622C194.492 384.126 194.618 384.522 194.87 384.81C195.122 385.098 195.506 385.338 196.022 385.53C196.55 385.71 197.222 385.89 198.038 386.07C198.95 386.262 199.736 386.49 200.396 386.754C201.056 387.018 201.566 387.378 201.926 387.834C202.286 388.278 202.466 388.884 202.466 389.652C202.466 390.432 202.268 391.08 201.872 391.596C201.476 392.112 200.93 392.496 200.234 392.748C199.538 392.988 198.746 393.108 197.858 393.108C195.866 393.108 194.156 392.49 192.728 391.254L193.358 390.228C193.814 390.708 194.438 391.122 195.23 391.47C196.034 391.818 196.922 391.992 197.894 391.992C198.902 391.992 199.694 391.806 200.27 391.434C200.846 391.062 201.134 390.51 201.134 389.778C201.134 389.25 200.99 388.83 200.702 388.518C200.414 388.194 199.982 387.93 199.406 387.726C198.83 387.522 198.122 387.324 197.282 387.132C196.394 386.928 195.644 386.7 195.032 386.448C194.432 386.196 193.976 385.866 193.664 385.458C193.352 385.05 193.196 384.498 193.196 383.802C193.196 383.01 193.388 382.344 193.772 381.804C194.168 381.252 194.708 380.838 195.392 380.562C196.076 380.274 196.862 380.13 197.75 380.13C198.59 380.13 199.346 380.262 200.018 380.526C200.69 380.778 201.296 381.138 201.836 381.606L201.224 382.614ZM209.224 393.18C208.444 393.18 207.742 392.976 207.118 392.568C206.506 392.16 206.02 391.656 205.66 391.056V396.834H204.436V383.622H205.534V385.44C205.906 384.852 206.398 384.378 207.01 384.018C207.634 383.646 208.306 383.46 209.026 383.46C209.674 383.46 210.268 383.598 210.808 383.874C211.348 384.138 211.816 384.498 212.212 384.954C212.62 385.41 212.932 385.932 213.148 386.52C213.364 387.096 213.472 387.696 213.472 388.32C213.472 389.196 213.292 390.006 212.932 390.75C212.584 391.482 212.086 392.07 211.438 392.514C210.802 392.958 210.064 393.18 209.224 393.18ZM208.882 392.1C209.566 392.1 210.154 391.92 210.646 391.56C211.15 391.188 211.54 390.714 211.816 390.138C212.092 389.562 212.23 388.956 212.23 388.32C212.23 387.648 212.074 387.024 211.762 386.448C211.45 385.872 211.03 385.41 210.502 385.062C209.986 384.714 209.398 384.54 208.738 384.54C208.33 384.54 207.898 384.648 207.442 384.864C206.998 385.068 206.602 385.35 206.254 385.71C205.918 386.058 205.72 386.442 205.66 386.862V389.742C205.936 390.402 206.368 390.96 206.956 391.416C207.544 391.872 208.186 392.1 208.882 392.1ZM214.789 390.3C214.789 389.724 214.957 389.226 215.293 388.806C215.629 388.374 216.091 388.038 216.679 387.798C217.279 387.558 217.969 387.438 218.749 387.438C219.205 387.438 219.679 387.48 220.171 387.564C220.663 387.636 221.101 387.738 221.485 387.87V387.078C221.485 386.286 221.251 385.656 220.783 385.188C220.315 384.72 219.667 384.486 218.839 384.486C218.347 384.486 217.855 384.582 217.363 384.774C216.871 384.954 216.361 385.224 215.833 385.584L215.365 384.72C215.977 384.3 216.577 383.988 217.165 383.784C217.753 383.568 218.353 383.46 218.965 383.46C220.117 383.46 221.029 383.79 221.701 384.45C222.373 385.11 222.709 386.022 222.709 387.186V391.524C222.709 391.848 222.859 392.016 223.159 392.028V393C222.895 393.036 222.709 393.048 222.601 393.036C222.301 393.024 222.073 392.928 221.917 392.748C221.761 392.568 221.677 392.376 221.665 392.172L221.647 391.488C221.227 392.028 220.681 392.448 220.009 392.748C219.337 393.036 218.653 393.18 217.957 393.18C217.345 393.18 216.799 393.054 216.319 392.802C215.839 392.538 215.461 392.19 215.185 391.758C214.921 391.314 214.789 390.828 214.789 390.3ZM221.071 391.02C221.347 390.696 221.485 390.396 221.485 390.12V388.752C220.657 388.428 219.793 388.266 218.893 388.266C218.017 388.266 217.309 388.44 216.769 388.788C216.229 389.136 215.959 389.61 215.959 390.21C215.959 390.726 216.157 391.194 216.553 391.614C216.961 392.034 217.525 392.244 218.245 392.244C218.833 392.244 219.379 392.13 219.883 391.902C220.399 391.674 220.795 391.38 221.071 391.02ZM229.422 393.18C228.51 393.18 227.7 392.958 226.992 392.514C226.284 392.058 225.726 391.464 225.318 390.732C224.91 389.988 224.706 389.172 224.706 388.284C224.706 387.396 224.904 386.592 225.3 385.872C225.696 385.14 226.248 384.558 226.956 384.126C227.664 383.682 228.48 383.46 229.404 383.46C230.28 383.46 231.048 383.664 231.708 384.072C232.38 384.468 232.884 385.008 233.22 385.692L232.032 386.07C231.768 385.59 231.396 385.218 230.916 384.954C230.448 384.678 229.926 384.54 229.35 384.54C228.714 384.54 228.138 384.702 227.622 385.026C227.118 385.35 226.71 385.8 226.398 386.376C226.098 386.94 225.948 387.576 225.948 388.284C225.948 388.992 226.104 389.634 226.416 390.21C226.728 390.786 227.142 391.248 227.658 391.596C228.174 391.932 228.744 392.1 229.368 392.1C229.776 392.1 230.172 392.028 230.556 391.884C230.94 391.74 231.27 391.548 231.546 391.308C231.822 391.056 232.008 390.786 232.104 390.498L233.31 390.858C233.142 391.302 232.866 391.704 232.482 392.064C232.098 392.412 231.642 392.688 231.114 392.892C230.586 393.084 230.022 393.18 229.422 393.18ZM239.195 393.18C238.295 393.18 237.491 392.958 236.783 392.514C236.075 392.07 235.517 391.476 235.109 390.732C234.701 389.988 234.497 389.172 234.497 388.284C234.497 387.408 234.695 386.604 235.091 385.872C235.499 385.14 236.057 384.558 236.765 384.126C237.473 383.682 238.277 383.46 239.177 383.46C240.101 383.46 240.911 383.682 241.607 384.126C242.303 384.57 242.843 385.158 243.227 385.89C243.623 386.61 243.821 387.402 243.821 388.266C243.821 388.458 243.815 388.62 243.803 388.752H235.775C235.835 389.424 236.027 390.024 236.351 390.552C236.675 391.068 237.089 391.482 237.593 391.794C238.097 392.094 238.649 392.244 239.249 392.244C239.861 392.244 240.437 392.088 240.977 391.776C241.517 391.464 241.901 391.056 242.129 390.552L243.191 390.84C242.999 391.296 242.699 391.704 242.291 392.064C241.895 392.412 241.433 392.688 240.905 392.892C240.377 393.084 239.807 393.18 239.195 393.18ZM235.739 387.87H242.669C242.621 387.198 242.435 386.604 242.111 386.088C241.787 385.56 241.373 385.152 240.869 384.864C240.365 384.564 239.807 384.414 239.195 384.414C238.583 384.414 238.025 384.564 237.521 384.864C237.017 385.152 236.603 385.56 236.279 386.088C235.967 386.604 235.787 387.198 235.739 387.87Z" fill="#86878B"/>
<rect x="1" y="411" width="370" height="50" fill="white" stroke="#F5F5F5" stroke-width="2"/>
<path d="M134.949 441.884V443H128.847V441.884H131.403V434.18C131.271 434.36 131.031 434.564 130.683 434.792C130.335 435.02 129.957 435.218 129.549 435.386C129.141 435.542 128.781 435.62 128.469 435.62V434.432C128.745 434.432 129.045 434.354 129.369 434.198C129.705 434.042 130.017 433.862 130.305 433.658C130.605 433.442 130.857 433.244 131.061 433.064C131.265 432.884 131.379 432.77 131.403 432.722H132.663V441.884H134.949ZM146.66 443.09C145.796 443.09 144.998 442.91 144.266 442.55C143.546 442.178 142.916 441.68 142.376 441.056C141.836 440.432 141.416 439.736 141.116 438.968C140.828 438.188 140.684 437.396 140.684 436.592C140.684 435.74 140.828 434.93 141.116 434.162C141.416 433.382 141.83 432.692 142.358 432.092C142.886 431.48 143.51 431 144.23 430.652C144.95 430.304 145.736 430.13 146.588 430.13C147.848 430.13 148.874 430.388 149.666 430.904C150.458 431.42 151.058 432.092 151.466 432.92L150.494 433.568C150.086 432.776 149.54 432.194 148.856 431.822C148.172 431.45 147.41 431.264 146.57 431.264C145.862 431.264 145.22 431.414 144.644 431.714C144.08 432.014 143.594 432.416 143.186 432.92C142.79 433.424 142.484 433.994 142.268 434.63C142.052 435.266 141.944 435.926 141.944 436.61C141.944 437.33 142.064 438.014 142.304 438.662C142.544 439.298 142.88 439.868 143.312 440.372C143.756 440.864 144.266 441.254 144.842 441.542C145.43 441.818 146.066 441.956 146.75 441.956C147.482 441.956 148.178 441.782 148.838 441.434C149.51 441.086 150.152 440.546 150.764 439.814V437.69H147.92V436.718H151.826V443H150.764V441.128C149.588 442.436 148.22 443.09 146.66 443.09ZM158.753 443.18C158.021 443.18 157.343 442.994 156.719 442.622C156.095 442.238 155.609 441.758 155.261 441.182V443H154.163V429.86H155.387V435.584C155.807 434.948 156.311 434.438 156.899 434.054C157.487 433.658 158.171 433.46 158.951 433.46C159.611 433.46 160.199 433.598 160.715 433.874C161.243 434.15 161.693 434.522 162.064 434.99C162.437 435.446 162.719 435.968 162.911 436.556C163.103 437.132 163.199 437.726 163.199 438.338C163.199 439.214 163.001 440.018 162.605 440.75C162.221 441.482 161.693 442.07 161.021 442.514C160.349 442.958 159.593 443.18 158.753 443.18ZM158.465 442.1C159.149 442.1 159.749 441.92 160.265 441.56C160.793 441.2 161.207 440.738 161.507 440.174C161.807 439.598 161.957 438.986 161.957 438.338C161.957 437.678 161.813 437.06 161.525 436.484C161.249 435.908 160.859 435.44 160.355 435.08C159.851 434.72 159.269 434.54 158.609 434.54C157.877 434.54 157.229 434.774 156.665 435.242C156.113 435.71 155.687 436.256 155.387 436.88V439.796C155.447 440.228 155.645 440.618 155.981 440.966C156.317 441.314 156.713 441.59 157.169 441.794C157.625 441.998 158.057 442.1 158.465 442.1ZM175.26 443.09C174.36 443.09 173.544 442.91 172.812 442.55C172.08 442.178 171.45 441.686 170.922 441.074C170.394 440.462 169.986 439.772 169.698 439.004C169.41 438.224 169.266 437.426 169.266 436.61C169.266 435.758 169.416 434.948 169.716 434.18C170.016 433.4 170.436 432.71 170.976 432.11C171.528 431.498 172.17 431.018 172.902 430.67C173.634 430.31 174.426 430.13 175.278 430.13C176.166 430.13 176.976 430.316 177.708 430.688C178.44 431.06 179.07 431.558 179.598 432.182C180.138 432.806 180.546 433.502 180.822 434.27C181.11 435.038 181.254 435.824 181.254 436.628C181.254 437.48 181.104 438.296 180.804 439.076C180.504 439.844 180.084 440.534 179.544 441.146C179.004 441.746 178.368 442.22 177.636 442.568C176.904 442.916 176.112 443.09 175.26 443.09ZM170.526 436.61C170.526 437.306 170.64 437.972 170.868 438.608C171.096 439.244 171.42 439.814 171.84 440.318C172.26 440.822 172.758 441.224 173.334 441.524C173.922 441.812 174.564 441.956 175.26 441.956C175.992 441.956 176.646 441.806 177.222 441.506C177.81 441.194 178.308 440.78 178.716 440.264C179.136 439.748 179.454 439.178 179.67 438.554C179.886 437.918 179.994 437.27 179.994 436.61C179.994 435.914 179.88 435.248 179.652 434.612C179.424 433.976 179.094 433.406 178.662 432.902C178.242 432.398 177.744 432.002 177.168 431.714C176.592 431.426 175.956 431.282 175.26 431.282C174.54 431.282 173.886 431.432 173.298 431.732C172.722 432.032 172.224 432.44 171.804 432.956C171.396 433.46 171.078 434.03 170.85 434.666C170.634 435.302 170.526 435.95 170.526 436.61ZM183.827 443V434.594H182.531V433.622H183.827V433.37C183.827 432.218 184.073 431.318 184.565 430.67C185.069 430.01 185.741 429.68 186.581 429.68C186.941 429.68 187.295 429.734 187.643 429.842C188.003 429.95 188.309 430.094 188.561 430.274L188.183 431.156C187.823 430.88 187.367 430.742 186.815 430.742C186.251 430.742 185.813 430.964 185.501 431.408C185.201 431.852 185.051 432.494 185.051 433.334V433.622H187.643V434.594H185.051V443H183.827ZM201.224 432.614C200.864 432.218 200.384 431.894 199.784 431.642C199.184 431.378 198.5 431.246 197.732 431.246C196.604 431.246 195.782 431.462 195.266 431.894C194.75 432.314 194.492 432.89 194.492 433.622C194.492 434.126 194.618 434.522 194.87 434.81C195.122 435.098 195.506 435.338 196.022 435.53C196.55 435.71 197.222 435.89 198.038 436.07C198.95 436.262 199.736 436.49 200.396 436.754C201.056 437.018 201.566 437.378 201.926 437.834C202.286 438.278 202.466 438.884 202.466 439.652C202.466 440.432 202.268 441.08 201.872 441.596C201.476 442.112 200.93 442.496 200.234 442.748C199.538 442.988 198.746 443.108 197.858 443.108C195.866 443.108 194.156 442.49 192.728 441.254L193.358 440.228C193.814 440.708 194.438 441.122 195.23 441.47C196.034 441.818 196.922 441.992 197.894 441.992C198.902 441.992 199.694 441.806 200.27 441.434C200.846 441.062 201.134 440.51 201.134 439.778C201.134 439.25 200.99 438.83 200.702 438.518C200.414 438.194 199.982 437.93 199.406 437.726C198.83 437.522 198.122 437.324 197.282 437.132C196.394 436.928 195.644 436.7 195.032 436.448C194.432 436.196 193.976 435.866 193.664 435.458C193.352 435.05 193.196 434.498 193.196 433.802C193.196 433.01 193.388 432.344 193.772 431.804C194.168 431.252 194.708 430.838 195.392 430.562C196.076 430.274 196.862 430.13 197.75 430.13C198.59 430.13 199.346 430.262 200.018 430.526C200.69 430.778 201.296 431.138 201.836 431.606L201.224 432.614ZM209.224 443.18C208.444 443.18 207.742 442.976 207.118 442.568C206.506 442.16 206.02 441.656 205.66 441.056V446.834H204.436V433.622H205.534V435.44C205.906 434.852 206.398 434.378 207.01 434.018C207.634 433.646 208.306 433.46 209.026 433.46C209.674 433.46 210.268 433.598 210.808 433.874C211.348 434.138 211.816 434.498 212.212 434.954C212.62 435.41 212.932 435.932 213.148 436.52C213.364 437.096 213.472 437.696 213.472 438.32C213.472 439.196 213.292 440.006 212.932 440.75C212.584 441.482 212.086 442.07 211.438 442.514C210.802 442.958 210.064 443.18 209.224 443.18ZM208.882 442.1C209.566 442.1 210.154 441.92 210.646 441.56C211.15 441.188 211.54 440.714 211.816 440.138C212.092 439.562 212.23 438.956 212.23 438.32C212.23 437.648 212.074 437.024 211.762 436.448C211.45 435.872 211.03 435.41 210.502 435.062C209.986 434.714 209.398 434.54 208.738 434.54C208.33 434.54 207.898 434.648 207.442 434.864C206.998 435.068 206.602 435.35 206.254 435.71C205.918 436.058 205.72 436.442 205.66 436.862V439.742C205.936 440.402 206.368 440.96 206.956 441.416C207.544 441.872 208.186 442.1 208.882 442.1ZM214.789 440.3C214.789 439.724 214.957 439.226 215.293 438.806C215.629 438.374 216.091 438.038 216.679 437.798C217.279 437.558 217.969 437.438 218.749 437.438C219.205 437.438 219.679 437.48 220.171 437.564C220.663 437.636 221.101 437.738 221.485 437.87V437.078C221.485 436.286 221.251 435.656 220.783 435.188C220.315 434.72 219.667 434.486 218.839 434.486C218.347 434.486 217.855 434.582 217.363 434.774C216.871 434.954 216.361 435.224 215.833 435.584L215.365 434.72C215.977 434.3 216.577 433.988 217.165 433.784C217.753 433.568 218.353 433.46 218.965 433.46C220.117 433.46 221.029 433.79 221.701 434.45C222.373 435.11 222.709 436.022 222.709 437.186V441.524C222.709 441.848 222.859 442.016 223.159 442.028V443C222.895 443.036 222.709 443.048 222.601 443.036C222.301 443.024 222.073 442.928 221.917 442.748C221.761 442.568 221.677 442.376 221.665 442.172L221.647 441.488C221.227 442.028 220.681 442.448 220.009 442.748C219.337 443.036 218.653 443.18 217.957 443.18C217.345 443.18 216.799 443.054 216.319 442.802C215.839 442.538 215.461 442.19 215.185 441.758C214.921 441.314 214.789 440.828 214.789 440.3ZM221.071 441.02C221.347 440.696 221.485 440.396 221.485 440.12V438.752C220.657 438.428 219.793 438.266 218.893 438.266C218.017 438.266 217.309 438.44 216.769 438.788C216.229 439.136 215.959 439.61 215.959 440.21C215.959 440.726 216.157 441.194 216.553 441.614C216.961 442.034 217.525 442.244 218.245 442.244C218.833 442.244 219.379 442.13 219.883 441.902C220.399 441.674 220.795 441.38 221.071 441.02ZM229.422 443.18C228.51 443.18 227.7 442.958 226.992 442.514C226.284 442.058 225.726 441.464 225.318 440.732C224.91 439.988 224.706 439.172 224.706 438.284C224.706 437.396 224.904 436.592 225.3 435.872C225.696 435.14 226.248 434.558 226.956 434.126C227.664 433.682 228.48 433.46 229.404 433.46C230.28 433.46 231.048 433.664 231.708 434.072C232.38 434.468 232.884 435.008 233.22 435.692L232.032 436.07C231.768 435.59 231.396 435.218 230.916 434.954C230.448 434.678 229.926 434.54 229.35 434.54C228.714 434.54 228.138 434.702 227.622 435.026C227.118 435.35 226.71 435.8 226.398 436.376C226.098 436.94 225.948 437.576 225.948 438.284C225.948 438.992 226.104 439.634 226.416 440.21C226.728 440.786 227.142 441.248 227.658 441.596C228.174 441.932 228.744 442.1 229.368 442.1C229.776 442.1 230.172 442.028 230.556 441.884C230.94 441.74 231.27 441.548 231.546 441.308C231.822 441.056 232.008 440.786 232.104 440.498L233.31 440.858C233.142 441.302 232.866 441.704 232.482 442.064C232.098 442.412 231.642 442.688 231.114 442.892C230.586 443.084 230.022 443.18 229.422 443.18ZM239.195 443.18C238.295 443.18 237.491 442.958 236.783 442.514C236.075 442.07 235.517 441.476 235.109 440.732C234.701 439.988 234.497 439.172 234.497 438.284C234.497 437.408 234.695 436.604 235.091 435.872C235.499 435.14 236.057 434.558 236.765 434.126C237.473 433.682 238.277 433.46 239.177 433.46C240.101 433.46 240.911 433.682 241.607 434.126C242.303 434.57 242.843 435.158 243.227 435.89C243.623 436.61 243.821 437.402 243.821 438.266C243.821 438.458 243.815 438.62 243.803 438.752H235.775C235.835 439.424 236.027 440.024 236.351 440.552C236.675 441.068 237.089 441.482 237.593 441.794C238.097 442.094 238.649 442.244 239.249 442.244C239.861 442.244 240.437 442.088 240.977 441.776C241.517 441.464 241.901 441.056 242.129 440.552L243.191 440.84C242.999 441.296 242.699 441.704 242.291 442.064C241.895 442.412 241.433 442.688 240.905 442.892C240.377 443.084 239.807 443.18 239.195 443.18ZM235.739 437.87H242.669C242.621 437.198 242.435 436.604 242.111 436.088C241.787 435.56 241.373 435.152 240.869 434.864C240.365 434.564 239.807 434.414 239.195 434.414C238.583 434.414 238.025 434.564 237.521 434.864C237.017 435.152 236.603 435.56 236.279 436.088C235.967 436.604 235.787 437.198 235.739 437.87Z" fill="#86878B"/>
<rect x="1" y="461" width="370" height="50" fill="white" stroke="#F5F5F5" stroke-width="2"/>
<path d="M134.949 491.884V493H128.847V491.884H131.403V484.18C131.271 484.36 131.031 484.564 130.683 484.792C130.335 485.02 129.957 485.218 129.549 485.386C129.141 485.542 128.781 485.62 128.469 485.62V484.432C128.745 484.432 129.045 484.354 129.369 484.198C129.705 484.042 130.017 483.862 130.305 483.658C130.605 483.442 130.857 483.244 131.061 483.064C131.265 482.884 131.379 482.77 131.403 482.722H132.663V491.884H134.949ZM146.66 493.09C145.796 493.09 144.998 492.91 144.266 492.55C143.546 492.178 142.916 491.68 142.376 491.056C141.836 490.432 141.416 489.736 141.116 488.968C140.828 488.188 140.684 487.396 140.684 486.592C140.684 485.74 140.828 484.93 141.116 484.162C141.416 483.382 141.83 482.692 142.358 482.092C142.886 481.48 143.51 481 144.23 480.652C144.95 480.304 145.736 480.13 146.588 480.13C147.848 480.13 148.874 480.388 149.666 480.904C150.458 481.42 151.058 482.092 151.466 482.92L150.494 483.568C150.086 482.776 149.54 482.194 148.856 481.822C148.172 481.45 147.41 481.264 146.57 481.264C145.862 481.264 145.22 481.414 144.644 481.714C144.08 482.014 143.594 482.416 143.186 482.92C142.79 483.424 142.484 483.994 142.268 484.63C142.052 485.266 141.944 485.926 141.944 486.61C141.944 487.33 142.064 488.014 142.304 488.662C142.544 489.298 142.88 489.868 143.312 490.372C143.756 490.864 144.266 491.254 144.842 491.542C145.43 491.818 146.066 491.956 146.75 491.956C147.482 491.956 148.178 491.782 148.838 491.434C149.51 491.086 150.152 490.546 150.764 489.814V487.69H147.92V486.718H151.826V493H150.764V491.128C149.588 492.436 148.22 493.09 146.66 493.09ZM158.753 493.18C158.021 493.18 157.343 492.994 156.719 492.622C156.095 492.238 155.609 491.758 155.261 491.182V493H154.163V479.86H155.387V485.584C155.807 484.948 156.311 484.438 156.899 484.054C157.487 483.658 158.171 483.46 158.951 483.46C159.611 483.46 160.199 483.598 160.715 483.874C161.243 484.15 161.693 484.522 162.064 484.99C162.437 485.446 162.719 485.968 162.911 486.556C163.103 487.132 163.199 487.726 163.199 488.338C163.199 489.214 163.001 490.018 162.605 490.75C162.221 491.482 161.693 492.07 161.021 492.514C160.349 492.958 159.593 493.18 158.753 493.18ZM158.465 492.1C159.149 492.1 159.749 491.92 160.265 491.56C160.793 491.2 161.207 490.738 161.507 490.174C161.807 489.598 161.957 488.986 161.957 488.338C161.957 487.678 161.813 487.06 161.525 486.484C161.249 485.908 160.859 485.44 160.355 485.08C159.851 484.72 159.269 484.54 158.609 484.54C157.877 484.54 157.229 484.774 156.665 485.242C156.113 485.71 155.687 486.256 155.387 486.88V489.796C155.447 490.228 155.645 490.618 155.981 490.966C156.317 491.314 156.713 491.59 157.169 491.794C157.625 491.998 158.057 492.1 158.465 492.1ZM175.26 493.09C174.36 493.09 173.544 492.91 172.812 492.55C172.08 492.178 171.45 491.686 170.922 491.074C170.394 490.462 169.986 489.772 169.698 489.004C169.41 488.224 169.266 487.426 169.266 486.61C169.266 485.758 169.416 484.948 169.716 484.18C170.016 483.4 170.436 482.71 170.976 482.11C171.528 481.498 172.17 481.018 172.902 480.67C173.634 480.31 174.426 480.13 175.278 480.13C176.166 480.13 176.976 480.316 177.708 480.688C178.44 481.06 179.07 481.558 179.598 482.182C180.138 482.806 180.546 483.502 180.822 484.27C181.11 485.038 181.254 485.824 181.254 486.628C181.254 487.48 181.104 488.296 180.804 489.076C180.504 489.844 180.084 490.534 179.544 491.146C179.004 491.746 178.368 492.22 177.636 492.568C176.904 492.916 176.112 493.09 175.26 493.09ZM170.526 486.61C170.526 487.306 170.64 487.972 170.868 488.608C171.096 489.244 171.42 489.814 171.84 490.318C172.26 490.822 172.758 491.224 173.334 491.524C173.922 491.812 174.564 491.956 175.26 491.956C175.992 491.956 176.646 491.806 177.222 491.506C177.81 491.194 178.308 490.78 178.716 490.264C179.136 489.748 179.454 489.178 179.67 488.554C179.886 487.918 179.994 487.27 179.994 486.61C179.994 485.914 179.88 485.248 179.652 484.612C179.424 483.976 179.094 483.406 178.662 482.902C178.242 482.398 177.744 482.002 177.168 481.714C176.592 481.426 175.956 481.282 175.26 481.282C174.54 481.282 173.886 481.432 173.298 481.732C172.722 482.032 172.224 482.44 171.804 482.956C171.396 483.46 171.078 484.03 170.85 484.666C170.634 485.302 170.526 485.95 170.526 486.61ZM183.827 493V484.594H182.531V483.622H183.827V483.37C183.827 482.218 184.073 481.318 184.565 480.67C185.069 480.01 185.741 479.68 186.581 479.68C186.941 479.68 187.295 479.734 187.643 479.842C188.003 479.95 188.309 480.094 188.561 480.274L188.183 481.156C187.823 480.88 187.367 480.742 186.815 480.742C186.251 480.742 185.813 480.964 185.501 481.408C185.201 481.852 185.051 482.494 185.051 483.334V483.622H187.643V484.594H185.051V493H183.827ZM201.224 482.614C200.864 482.218 200.384 481.894 199.784 481.642C199.184 481.378 198.5 481.246 197.732 481.246C196.604 481.246 195.782 481.462 195.266 481.894C194.75 482.314 194.492 482.89 194.492 483.622C194.492 484.126 194.618 484.522 194.87 484.81C195.122 485.098 195.506 485.338 196.022 485.53C196.55 485.71 197.222 485.89 198.038 486.07C198.95 486.262 199.736 486.49 200.396 486.754C201.056 487.018 201.566 487.378 201.926 487.834C202.286 488.278 202.466 488.884 202.466 489.652C202.466 490.432 202.268 491.08 201.872 491.596C201.476 492.112 200.93 492.496 200.234 492.748C199.538 492.988 198.746 493.108 197.858 493.108C195.866 493.108 194.156 492.49 192.728 491.254L193.358 490.228C193.814 490.708 194.438 491.122 195.23 491.47C196.034 491.818 196.922 491.992 197.894 491.992C198.902 491.992 199.694 491.806 200.27 491.434C200.846 491.062 201.134 490.51 201.134 489.778C201.134 489.25 200.99 488.83 200.702 488.518C200.414 488.194 199.982 487.93 199.406 487.726C198.83 487.522 198.122 487.324 197.282 487.132C196.394 486.928 195.644 486.7 195.032 486.448C194.432 486.196 193.976 485.866 193.664 485.458C193.352 485.05 193.196 484.498 193.196 483.802C193.196 483.01 193.388 482.344 193.772 481.804C194.168 481.252 194.708 480.838 195.392 480.562C196.076 480.274 196.862 480.13 197.75 480.13C198.59 480.13 199.346 480.262 200.018 480.526C200.69 480.778 201.296 481.138 201.836 481.606L201.224 482.614ZM209.224 493.18C208.444 493.18 207.742 492.976 207.118 492.568C206.506 492.16 206.02 491.656 205.66 491.056V496.834H204.436V483.622H205.534V485.44C205.906 484.852 206.398 484.378 207.01 484.018C207.634 483.646 208.306 483.46 209.026 483.46C209.674 483.46 210.268 483.598 210.808 483.874C211.348 484.138 211.816 484.498 212.212 484.954C212.62 485.41 212.932 485.932 213.148 486.52C213.364 487.096 213.472 487.696 213.472 488.32C213.472 489.196 213.292 490.006 212.932 490.75C212.584 491.482 212.086 492.07 211.438 492.514C210.802 492.958 210.064 493.18 209.224 493.18ZM208.882 492.1C209.566 492.1 210.154 491.92 210.646 491.56C211.15 491.188 211.54 490.714 211.816 490.138C212.092 489.562 212.23 488.956 212.23 488.32C212.23 487.648 212.074 487.024 211.762 486.448C211.45 485.872 211.03 485.41 210.502 485.062C209.986 484.714 209.398 484.54 208.738 484.54C208.33 484.54 207.898 484.648 207.442 484.864C206.998 485.068 206.602 485.35 206.254 485.71C205.918 486.058 205.72 486.442 205.66 486.862V489.742C205.936 490.402 206.368 490.96 206.956 491.416C207.544 491.872 208.186 492.1 208.882 492.1ZM214.789 490.3C214.789 489.724 214.957 489.226 215.293 488.806C215.629 488.374 216.091 488.038 216.679 487.798C217.279 487.558 217.969 487.438 218.749 487.438C219.205 487.438 219.679 487.48 220.171 487.564C220.663 487.636 221.101 487.738 221.485 487.87V487.078C221.485 486.286 221.251 485.656 220.783 485.188C220.315 484.72 219.667 484.486 218.839 484.486C218.347 484.486 217.855 484.582 217.363 484.774C216.871 484.954 216.361 485.224 215.833 485.584L215.365 484.72C215.977 484.3 216.577 483.988 217.165 483.784C217.753 483.568 218.353 483.46 218.965 483.46C220.117 483.46 221.029 483.79 221.701 484.45C222.373 485.11 222.709 486.022 222.709 487.186V491.524C222.709 491.848 222.859 492.016 223.159 492.028V493C222.895 493.036 222.709 493.048 222.601 493.036C222.301 493.024 222.073 492.928 221.917 492.748C221.761 492.568 221.677 492.376 221.665 492.172L221.647 491.488C221.227 492.028 220.681 492.448 220.009 492.748C219.337 493.036 218.653 493.18 217.957 493.18C217.345 493.18 216.799 493.054 216.319 492.802C215.839 492.538 215.461 492.19 215.185 491.758C214.921 491.314 214.789 490.828 214.789 490.3ZM221.071 491.02C221.347 490.696 221.485 490.396 221.485 490.12V488.752C220.657 488.428 219.793 488.266 218.893 488.266C218.017 488.266 217.309 488.44 216.769 488.788C216.229 489.136 215.959 489.61 215.959 490.21C215.959 490.726 216.157 491.194 216.553 491.614C216.961 492.034 217.525 492.244 218.245 492.244C218.833 492.244 219.379 492.13 219.883 491.902C220.399 491.674 220.795 491.38 221.071 491.02ZM229.422 493.18C228.51 493.18 227.7 492.958 226.992 492.514C226.284 492.058 225.726 491.464 225.318 490.732C224.91 489.988 224.706 489.172 224.706 488.284C224.706 487.396 224.904 486.592 225.3 485.872C225.696 485.14 226.248 484.558 226.956 484.126C227.664 483.682 228.48 483.46 229.404 483.46C230.28 483.46 231.048 483.664 231.708 484.072C232.38 484.468 232.884 485.008 233.22 485.692L232.032 486.07C231.768 485.59 231.396 485.218 230.916 484.954C230.448 484.678 229.926 484.54 229.35 484.54C228.714 484.54 228.138 484.702 227.622 485.026C227.118 485.35 226.71 485.8 226.398 486.376C226.098 486.94 225.948 487.576 225.948 488.284C225.948 488.992 226.104 489.634 226.416 490.21C226.728 490.786 227.142 491.248 227.658 491.596C228.174 491.932 228.744 492.1 229.368 492.1C229.776 492.1 230.172 492.028 230.556 491.884C230.94 491.74 231.27 491.548 231.546 491.308C231.822 491.056 232.008 490.786 232.104 490.498L233.31 490.858C233.142 491.302 232.866 491.704 232.482 492.064C232.098 492.412 231.642 492.688 231.114 492.892C230.586 493.084 230.022 493.18 229.422 493.18ZM239.195 493.18C238.295 493.18 237.491 492.958 236.783 492.514C236.075 492.07 235.517 491.476 235.109 490.732C234.701 489.988 234.497 489.172 234.497 488.284C234.497 487.408 234.695 486.604 235.091 485.872C235.499 485.14 236.057 484.558 236.765 484.126C237.473 483.682 238.277 483.46 239.177 483.46C240.101 483.46 240.911 483.682 241.607 484.126C242.303 484.57 242.843 485.158 243.227 485.89C243.623 486.61 243.821 487.402 243.821 488.266C243.821 488.458 243.815 488.62 243.803 488.752H235.775C235.835 489.424 236.027 490.024 236.351 490.552C236.675 491.068 237.089 491.482 237.593 491.794C238.097 492.094 238.649 492.244 239.249 492.244C239.861 492.244 240.437 492.088 240.977 491.776C241.517 491.464 241.901 491.056 242.129 490.552L243.191 490.84C242.999 491.296 242.699 491.704 242.291 492.064C241.895 492.412 241.433 492.688 240.905 492.892C240.377 493.084 239.807 493.18 239.195 493.18ZM235.739 487.87H242.669C242.621 487.198 242.435 486.604 242.111 486.088C241.787 485.56 241.373 485.152 240.869 484.864C240.365 484.564 239.807 484.414 239.195 484.414C238.583 484.414 238.025 484.564 237.521 484.864C237.017 485.152 236.603 485.56 236.279 486.088C235.967 486.604 235.787 487.198 235.739 487.87Z" fill="#86878B"/>
<rect x="1" y="161" width="370" height="50" fill="#333333" stroke="#F5F5F5" stroke-width="2"/>
<path d="M140.827 193V180.22H149.215V181.336H142.087V186.034H148.099V187.078H142.087V193H140.827ZM155.169 184.702C154.353 184.726 153.633 184.954 153.009 185.386C152.397 185.818 151.965 186.412 151.713 187.168V193H150.489V183.622H151.641V185.872C151.965 185.212 152.391 184.678 152.919 184.27C153.459 183.862 154.029 183.634 154.629 183.586C154.749 183.574 154.851 183.568 154.935 183.568C155.019 183.568 155.097 183.574 155.169 183.586V184.702ZM160.568 193.18C159.668 193.18 158.864 192.958 158.156 192.514C157.448 192.07 156.89 191.476 156.482 190.732C156.074 189.988 155.87 189.172 155.87 188.284C155.87 187.408 156.068 186.604 156.464 185.872C156.872 185.14 157.43 184.558 158.138 184.126C158.846 183.682 159.65 183.46 160.55 183.46C161.474 183.46 162.284 183.682 162.98 184.126C163.676 184.57 164.216 185.158 164.6 185.89C164.996 186.61 165.194 187.402 165.194 188.266C165.194 188.458 165.188 188.62 165.176 188.752H157.148C157.208 189.424 157.4 190.024 157.724 190.552C158.048 191.068 158.462 191.482 158.966 191.794C159.47 192.094 160.022 192.244 160.622 192.244C161.234 192.244 161.81 192.088 162.35 191.776C162.89 191.464 163.274 191.056 163.502 190.552L164.564 190.84C164.372 191.296 164.072 191.704 163.664 192.064C163.268 192.412 162.806 192.688 162.278 192.892C161.75 193.084 161.18 193.18 160.568 193.18ZM157.112 187.87H164.042C163.994 187.198 163.808 186.604 163.484 186.088C163.16 185.56 162.746 185.152 162.242 184.864C161.738 184.564 161.18 184.414 160.568 184.414C159.956 184.414 159.398 184.564 158.894 184.864C158.39 185.152 157.976 185.56 157.652 186.088C157.34 186.604 157.16 187.198 157.112 187.87ZM171.132 193.18C170.232 193.18 169.428 192.958 168.72 192.514C168.012 192.07 167.454 191.476 167.046 190.732C166.638 189.988 166.434 189.172 166.434 188.284C166.434 187.408 166.632 186.604 167.028 185.872C167.436 185.14 167.994 184.558 168.702 184.126C169.41 183.682 170.214 183.46 171.114 183.46C172.038 183.46 172.848 183.682 173.544 184.126C174.24 184.57 174.78 185.158 175.164 185.89C175.56 186.61 175.758 187.402 175.758 188.266C175.758 188.458 175.752 188.62 175.74 188.752H167.712C167.772 189.424 167.964 190.024 168.288 190.552C168.612 191.068 169.026 191.482 169.53 191.794C170.034 192.094 170.586 192.244 171.186 192.244C171.798 192.244 172.374 192.088 172.914 191.776C173.454 191.464 173.838 191.056 174.066 190.552L175.128 190.84C174.936 191.296 174.636 191.704 174.228 192.064C173.832 192.412 173.37 192.688 172.842 192.892C172.314 193.084 171.744 193.18 171.132 193.18ZM167.676 187.87H174.606C174.558 187.198 174.372 186.604 174.048 186.088C173.724 185.56 173.31 185.152 172.806 184.864C172.302 184.564 171.744 184.414 171.132 184.414C170.52 184.414 169.962 184.564 169.458 184.864C168.954 185.152 168.54 185.56 168.216 186.088C167.904 186.604 167.724 187.198 167.676 187.87ZM182.685 193V184.594H181.389V183.622H182.685V183.37C182.685 182.218 182.931 181.318 183.423 180.67C183.927 180.01 184.599 179.68 185.439 179.68C185.799 179.68 186.153 179.734 186.501 179.842C186.861 179.95 187.167 180.094 187.419 180.274L187.041 181.156C186.681 180.88 186.225 180.742 185.673 180.742C185.109 180.742 184.671 180.964 184.359 181.408C184.059 181.852 183.909 182.494 183.909 183.334V183.622H186.501V184.594H183.909V193H182.685ZM191.891 193.18C190.991 193.18 190.187 192.958 189.479 192.514C188.783 192.07 188.237 191.482 187.841 190.75C187.445 190.006 187.247 189.202 187.247 188.338C187.247 187.462 187.445 186.658 187.841 185.926C188.249 185.182 188.801 184.588 189.497 184.144C190.205 183.688 191.003 183.46 191.891 183.46C192.791 183.46 193.589 183.688 194.285 184.144C194.993 184.588 195.545 185.182 195.941 185.926C196.349 186.658 196.553 187.462 196.553 188.338C196.553 189.202 196.355 190.006 195.959 190.75C195.563 191.482 195.011 192.07 194.303 192.514C193.607 192.958 192.803 193.18 191.891 193.18ZM188.489 188.356C188.489 189.052 188.639 189.688 188.939 190.264C189.251 190.828 189.665 191.278 190.181 191.614C190.697 191.938 191.267 192.1 191.891 192.1C192.515 192.1 193.085 191.932 193.601 191.596C194.117 191.26 194.531 190.804 194.843 190.228C195.155 189.652 195.311 189.016 195.311 188.32C195.311 187.624 195.155 186.988 194.843 186.412C194.531 185.836 194.117 185.38 193.601 185.044C193.085 184.708 192.515 184.54 191.891 184.54C191.279 184.54 190.715 184.714 190.199 185.062C189.683 185.398 189.269 185.854 188.957 186.43C188.645 187.006 188.489 187.648 188.489 188.356ZM203.28 184.702C202.464 184.726 201.744 184.954 201.12 185.386C200.508 185.818 200.076 186.412 199.824 187.168V193H198.6V183.622H199.752V185.872C200.076 185.212 200.502 184.678 201.03 184.27C201.57 183.862 202.14 183.634 202.74 183.586C202.86 183.574 202.962 183.568 203.046 183.568C203.13 183.568 203.208 183.574 203.28 183.586V184.702ZM209.131 179.86H210.355V190.876C210.355 191.344 210.433 191.65 210.589 191.794C210.757 191.938 210.967 192.01 211.219 192.01C211.435 192.01 211.651 191.986 211.867 191.938C212.095 191.89 212.281 191.842 212.425 191.794L212.641 192.784C212.413 192.88 212.131 192.958 211.795 193.018C211.471 193.078 211.189 193.108 210.949 193.108C210.397 193.108 209.953 192.946 209.617 192.622C209.293 192.298 209.131 191.854 209.131 191.29V179.86ZM213.981 181.66V179.86H215.205V181.66H213.981ZM213.981 193V183.622H215.205V193H213.981ZM218.351 193V184.594H217.055V183.622H218.351V183.37C218.351 182.218 218.597 181.318 219.089 180.67C219.593 180.01 220.265 179.68 221.105 179.68C221.465 179.68 221.819 179.734 222.167 179.842C222.527 179.95 222.833 180.094 223.085 180.274L222.707 181.156C222.347 180.88 221.891 180.742 221.339 180.742C220.775 180.742 220.337 180.964 220.025 181.408C219.725 181.852 219.575 182.494 219.575 183.334V183.622H222.167V184.594H219.575V193H218.351ZM227.611 193.18C226.711 193.18 225.907 192.958 225.199 192.514C224.491 192.07 223.933 191.476 223.525 190.732C223.117 189.988 222.913 189.172 222.913 188.284C222.913 187.408 223.111 186.604 223.507 185.872C223.915 185.14 224.473 184.558 225.181 184.126C225.889 183.682 226.693 183.46 227.593 183.46C228.517 183.46 229.327 183.682 230.023 184.126C230.719 184.57 231.259 185.158 231.643 185.89C232.039 186.61 232.237 187.402 232.237 188.266C232.237 188.458 232.231 188.62 232.219 188.752H224.191C224.251 189.424 224.443 190.024 224.767 190.552C225.091 191.068 225.505 191.482 226.009 191.794C226.513 192.094 227.065 192.244 227.665 192.244C228.277 192.244 228.853 192.088 229.393 191.776C229.933 191.464 230.317 191.056 230.545 190.552L231.607 190.84C231.415 191.296 231.115 191.704 230.707 192.064C230.311 192.412 229.849 192.688 229.321 192.892C228.793 193.084 228.223 193.18 227.611 193.18ZM224.155 187.87H231.085C231.037 187.198 230.851 186.604 230.527 186.088C230.203 185.56 229.789 185.152 229.285 184.864C228.781 184.564 228.223 184.414 227.611 184.414C226.999 184.414 226.441 184.564 225.937 184.864C225.433 185.152 225.019 185.56 224.695 186.088C224.383 186.604 224.203 187.198 224.155 187.87Z" fill="white" fill-opacity="0.5"/>
<rect x="1" y="61" width="370" height="100" fill="#333333" stroke="#F5F5F5" stroke-width="2"/>
<path d="M172.465 105.136C172.273 104.92 171.877 104.644 171.277 104.308C170.701 103.948 169.993 103.612 169.153 103.3C168.337 102.988 167.473 102.784 166.561 102.688V108.916C166.681 108.94 166.801 108.976 166.921 109.024C167.065 109.048 167.209 109.084 167.353 109.132C169.033 109.564 170.485 110.068 171.709 110.644C172.933 111.22 173.881 111.988 174.553 112.948C175.225 113.884 175.561 115.132 175.561 116.692C175.561 118.42 175.165 119.836 174.373 120.94C173.581 122.02 172.525 122.824 171.205 123.352C169.909 123.88 168.481 124.18 166.921 124.252V128.212H164.509V124.216C162.853 124.072 161.233 123.724 159.649 123.172C158.065 122.596 156.637 121.864 155.365 120.976L157.561 116.692C157.825 116.956 158.305 117.304 159.001 117.736C159.721 118.144 160.585 118.552 161.593 118.96C162.601 119.344 163.681 119.608 164.833 119.752V113.56C164.641 113.488 164.437 113.428 164.221 113.38C164.029 113.332 163.837 113.272 163.645 113.2C162.013 112.744 160.657 112.24 159.577 111.688C158.521 111.112 157.717 110.404 157.165 109.564C156.637 108.7 156.373 107.608 156.373 106.288C156.373 104.68 156.733 103.312 157.453 102.184C158.173 101.032 159.145 100.132 160.369 99.484C161.593 98.836 162.973 98.44 164.509 98.296V94.66H166.921V98.296C168.433 98.416 169.849 98.752 171.169 99.304C172.513 99.832 173.677 100.432 174.661 101.104L172.465 105.136ZM161.521 105.496C161.521 106.288 161.797 106.9 162.349 107.332C162.901 107.74 163.729 108.112 164.833 108.448V102.652C162.625 102.844 161.521 103.792 161.521 105.496ZM170.269 117.196C170.269 116.38 169.933 115.744 169.261 115.288C168.613 114.832 167.713 114.424 166.561 114.064V119.824C169.033 119.728 170.269 118.852 170.269 117.196ZM193.877 119.644V124H179.261V119.644H184.373V108.736C184.085 109.096 183.593 109.48 182.897 109.888C182.225 110.296 181.481 110.644 180.665 110.932C179.873 111.22 179.165 111.364 178.541 111.364V106.864C178.973 106.864 179.489 106.732 180.089 106.468C180.713 106.18 181.325 105.844 181.925 105.46C182.549 105.076 183.077 104.704 183.509 104.344C183.965 103.96 184.253 103.66 184.373 103.444H189.305V119.644H193.877ZM215.086 113.452C215.086 115.564 214.678 117.448 213.862 119.104C213.07 120.736 211.966 122.02 210.55 122.956C209.158 123.892 207.574 124.36 205.798 124.36C204.022 124.36 202.426 123.892 201.01 122.956C199.618 122.02 198.514 120.736 197.698 119.104C196.906 117.448 196.51 115.564 196.51 113.452C196.51 111.34 196.906 109.468 197.698 107.836C198.514 106.18 199.618 104.884 201.01 103.948C202.426 102.988 204.022 102.508 205.798 102.508C207.574 102.508 209.158 102.988 210.55 103.948C211.966 104.884 213.07 106.18 213.862 107.836C214.678 109.468 215.086 111.34 215.086 113.452ZM210.226 113.452C210.226 111.532 209.806 109.972 208.966 108.772C208.15 107.548 207.094 106.936 205.798 106.936C204.454 106.936 203.374 107.548 202.558 108.772C201.742 109.972 201.334 111.532 201.334 113.452C201.334 115.372 201.742 116.932 202.558 118.132C203.374 119.332 204.454 119.932 205.798 119.932C207.094 119.932 208.15 119.332 208.966 118.132C209.806 116.932 210.226 115.372 210.226 113.452Z" fill="white"/>
<rect x="1" y="1" width="370" height="60" fill="#333333" stroke="#F5F5F5" stroke-width="2"/>
<path d="M157.031 22.8672H162.363C164.793 22.8672 166.555 23.2148 167.648 23.9102C168.75 24.5977 169.301 25.6953 169.301 27.2031C169.301 28.2266 169.059 29.0664 168.574 29.7227C168.098 30.3789 167.461 30.7734 166.664 30.9062V31.0234C167.75 31.2656 168.531 31.7188 169.008 32.3828C169.492 33.0469 169.734 33.9297 169.734 35.0312C169.734 36.5938 169.168 37.8125 168.035 38.6875C166.91 39.5625 165.379 40 163.441 40H157.031V22.8672ZM160.664 29.6523H162.773C163.758 29.6523 164.469 29.5 164.906 29.1953C165.352 28.8906 165.574 28.3867 165.574 27.6836C165.574 27.0273 165.332 26.5586 164.848 26.2773C164.371 25.9883 163.613 25.8438 162.574 25.8438H160.664V29.6523ZM160.664 32.5352V37H163.031C164.031 37 164.77 36.8086 165.246 36.4258C165.723 36.043 165.961 35.457 165.961 34.668C165.961 33.2461 164.945 32.5352 162.914 32.5352H160.664ZM181.195 40L180.504 38.2188H180.41C179.809 38.9766 179.188 39.5039 178.547 39.8008C177.914 40.0898 177.086 40.2344 176.062 40.2344C174.805 40.2344 173.812 39.875 173.086 39.1562C172.367 38.4375 172.008 37.4141 172.008 36.0859C172.008 34.6953 172.492 33.6719 173.461 33.0156C174.438 32.3516 175.906 31.9844 177.867 31.9141L180.141 31.8438V31.2695C180.141 29.9414 179.461 29.2773 178.102 29.2773C177.055 29.2773 175.824 29.5938 174.41 30.2266L173.227 27.8125C174.734 27.0234 176.406 26.6289 178.242 26.6289C180 26.6289 181.348 27.0117 182.285 27.7773C183.223 28.543 183.691 29.707 183.691 31.2695V40H181.195ZM180.141 33.9297L178.758 33.9766C177.719 34.0078 176.945 34.1953 176.438 34.5391C175.93 34.8828 175.676 35.4062 175.676 36.1094C175.676 37.1172 176.254 37.6211 177.41 37.6211C178.238 37.6211 178.898 37.3828 179.391 36.9062C179.891 36.4297 180.141 35.7969 180.141 35.0078V33.9297ZM196.523 36.1094C196.523 37.4531 196.055 38.4766 195.117 39.1797C194.188 39.8828 192.793 40.2344 190.934 40.2344C189.98 40.2344 189.168 40.168 188.496 40.0352C187.824 39.9102 187.195 39.7227 186.609 39.4727V36.5195C187.273 36.832 188.02 37.0938 188.848 37.3047C189.684 37.5156 190.418 37.6211 191.051 37.6211C192.348 37.6211 192.996 37.2461 192.996 36.4961C192.996 36.2148 192.91 35.9883 192.738 35.8164C192.566 35.6367 192.27 35.4375 191.848 35.2188C191.426 34.9922 190.863 34.7305 190.16 34.4336C189.152 34.0117 188.41 33.6211 187.934 33.2617C187.465 32.9023 187.121 32.4922 186.902 32.0312C186.691 31.5625 186.586 30.9883 186.586 30.3086C186.586 29.1445 187.035 28.2461 187.934 27.6133C188.84 26.9727 190.121 26.6523 191.777 26.6523C193.355 26.6523 194.891 26.9961 196.383 27.6836L195.305 30.2617C194.648 29.9805 194.035 29.75 193.465 29.5703C192.895 29.3906 192.312 29.3008 191.719 29.3008C190.664 29.3008 190.137 29.5859 190.137 30.1562C190.137 30.4766 190.305 30.7539 190.641 30.9883C190.984 31.2227 191.73 31.5703 192.879 32.0312C193.902 32.4453 194.652 32.832 195.129 33.1914C195.605 33.5508 195.957 33.9648 196.184 34.4336C196.41 34.9023 196.523 35.4609 196.523 36.1094ZM199.16 23.5117C199.16 22.3477 199.809 21.7656 201.105 21.7656C202.402 21.7656 203.051 22.3477 203.051 23.5117C203.051 24.0664 202.887 24.5 202.559 24.8125C202.238 25.1172 201.754 25.2695 201.105 25.2695C199.809 25.2695 199.16 24.6836 199.16 23.5117ZM202.887 40H199.312V26.8984H202.887V40ZM211.969 40.2344C207.891 40.2344 205.852 37.9961 205.852 33.5195C205.852 31.293 206.406 29.5938 207.516 28.4219C208.625 27.2422 210.215 26.6523 212.285 26.6523C213.801 26.6523 215.16 26.9492 216.363 27.543L215.309 30.3086C214.746 30.082 214.223 29.8984 213.738 29.7578C213.254 29.6094 212.77 29.5352 212.285 29.5352C210.426 29.5352 209.496 30.8555 209.496 33.4961C209.496 36.0586 210.426 37.3398 212.285 37.3398C212.973 37.3398 213.609 37.25 214.195 37.0703C214.781 36.8828 215.367 36.5938 215.953 36.2031V39.2617C215.375 39.6289 214.789 39.8828 214.195 40.0234C213.609 40.1641 212.867 40.2344 211.969 40.2344Z" fill="white"/>
</svg>
